<svg xmlns="http://www.w3.org/2000/svg" width="692.098" height="553.001"><defs><clipPath id="a"><path data-name="Rectangle 113" fill="none" d="M0 0h692.098v553.002H0z"/></clipPath></defs><g data-name="Groupe 318"><g data-name="Groupe 281" clip-path="url(#a)"><g data-name="Groupe 280"><g data-name="Groupe 279" clip-path="url(#a)"><g data-name="Groupe 278" style="mix-blend-mode:multiply;isolation:isolate"><g data-name="Groupe 277"><g data-name="Groupe 276" clip-path="url(#a)" fill="#4c4a58"><path data-name="Tracé 13782" d="M635.19 376.521a1.5 1.5 0 0 0-.844-.109c-.266.044-.921.483-.962.791s-.451.593-.451 1.187.2 1.494.47 1.582a4.465 4.465 0 0 0 1.065.374 2.164 2.164 0 0 0 1.146-.2 2.128 2.128 0 0 0 .655-1.142c.021-.308.47-.914.082-1.545a2.169 2.169 0 0 0-1.162-.939"/><path data-name="Tracé 13783" d="M645.762 417.609a2.248 2.248 0 0 0-1.269-.165c-.4.066-1.385.726-1.447 1.19s-.677.892-.677 1.784.308 2.247.708 2.38a6.687 6.687 0 0 0 1.6.561 3.249 3.249 0 0 0 1.724-.3 3.2 3.2 0 0 0 .985-1.718c.03-.462.708-1.374.123-2.323a3.26 3.26 0 0 0-1.747-1.411"/><path data-name="Tracé 13784" d="M603.93 400.717a1.326 1.326 0 0 0-.749-.1c-.236.039-.818.429-.854.7s-.4.527-.4 1.053.182 1.326.418 1.4a3.957 3.957 0 0 0 .945.331 1.927 1.927 0 0 0 1.018-.175 1.889 1.889 0 0 0 .581-1.015c.018-.273.418-.811.073-1.371a1.921 1.921 0 0 0-1.031-.834"/><path data-name="Tracé 13785" d="M576.792 407.347a2.472 2.472 0 0 0-1.387-.18c-.436.073-1.513.8-1.58 1.3s-.74.975-.74 1.949.336 2.455.773 2.6a7.344 7.344 0 0 0 1.749.614 3.567 3.567 0 0 0 1.883-.326 3.5 3.5 0 0 0 1.076-1.877c.033-.506.773-1.5.135-2.538a3.563 3.563 0 0 0-1.909-1.542"/><path data-name="Tracé 13786" d="M216.374 216.069a2.334 2.334 0 0 0-1.321-.172c-.417.069-1.442.756-1.506 1.238s-.7.929-.7 1.857.321 2.339.738 2.476a6.9 6.9 0 0 0 1.666.586 3.384 3.384 0 0 0 1.794-.31 3.332 3.332 0 0 0 1.025-1.789c.033-.482.738-1.43.129-2.417a3.392 3.392 0 0 0-1.819-1.469"/><path data-name="Tracé 13787" d="M690.744 64.572a1.533 1.533 0 0 0-.865-.112c-.273.045-.945.5-.987.811s-.461.608-.461 1.216.209 1.532.482 1.622a4.51 4.51 0 0 0 1.091.383 2.216 2.216 0 0 0 1.175-.2 2.185 2.185 0 0 0 .672-1.171c.021-.316.482-.937.084-1.584a2.223 2.223 0 0 0-1.191-.962"/><path data-name="Tracé 13788" d="M647.009 31.383a.832.832 0 0 0-.47-.061c-.149.024-.513.269-.536.441s-.251.33-.251.661.115.832.263.881a2.418 2.418 0 0 0 .593.208.812.812 0 0 0 1-.746c.011-.171.262-.508.046-.86a1.216 1.216 0 0 0-.647-.522"/><path data-name="Tracé 13789" d="M628.329 43.792a2.029 2.029 0 0 0-1.145-.149c-.361.059-1.249.655-1.3 1.073s-.611.8-.611 1.61.278 2.027.639 2.146a6 6 0 0 0 1.443.507 2.927 2.927 0 0 0 1.555-.269 2.882 2.882 0 0 0 .888-1.55c.028-.417.639-1.239.112-2.095a2.944 2.944 0 0 0-1.576-1.273"/><path data-name="Tracé 13790" d="M643.034 280.764a2.125 2.125 0 0 0-1.2-.156c-.377.063-1.306.686-1.365 1.123s-.639.841-.639 1.683.291 2.12.668 2.245a6.3 6.3 0 0 0 1.511.53 3.067 3.067 0 0 0 1.626-.28 3.014 3.014 0 0 0 .929-1.622c.03-.436.668-1.3.116-2.191a3.076 3.076 0 0 0-1.648-1.332"/><path data-name="Tracé 13791" d="M400.318 401.071a.934.934 0 0 0-.53-.069c-.167.027-.578.3-.6.5s-.283.373-.283.745.128.939.3.993a2.745 2.745 0 0 0 .669.234 1.356 1.356 0 0 0 .72-.124 1.341 1.341 0 0 0 .411-.718c.013-.193.3-.574.051-.97a1.361 1.361 0 0 0-.729-.59"/><path data-name="Tracé 13792" d="M367.135 408.681a1.453 1.453 0 0 0-.82-.107c-.258.042-.894.469-.934.768s-.437.576-.437 1.153.2 1.451.457 1.536a4.311 4.311 0 0 0 1.033.362 2.1 2.1 0 0 0 1.113-.192 2.07 2.07 0 0 0 .636-1.11c.02-.3.457-.888.079-1.5a2.106 2.106 0 0 0-1.128-.911"/><path data-name="Tracé 13793" d="M351.962 385.392a1.421 1.421 0 0 0-.8-.1c-.253.041-.876.459-.914.752s-.428.564-.428 1.127.194 1.42.447 1.5a4.227 4.227 0 0 0 1.011.355 2.061 2.061 0 0 0 1.09-.188 2.02 2.02 0 0 0 .622-1.086c.02-.292.448-.868.078-1.468a2.06 2.06 0 0 0-1.1-.892"/><path data-name="Tracé 13794" d="M313.396 405.09a2.349 2.349 0 0 0-1.323-.172c-.417.069-1.445.758-1.509 1.241s-.706.931-.706 1.861.32 2.344.738 2.481a6.953 6.953 0 0 0 1.669.586 3.39 3.39 0 0 0 1.8-.311 3.338 3.338 0 0 0 1.028-1.792c.032-.482.738-1.433.128-2.422a3.4 3.4 0 0 0-1.822-1.472"/><path data-name="Tracé 13795" d="M450.681 54.324a2.022 2.022 0 0 0-1.139-.149c-.36.06-1.244.653-1.3 1.068s-.608.8-.608 1.6.276 2.017.635 2.136a5.974 5.974 0 0 0 1.437.5 2.917 2.917 0 0 0 1.548-.267 2.878 2.878 0 0 0 .884-1.542c.027-.416.635-1.233.11-2.085a2.925 2.925 0 0 0-1.568-1.267"/><path data-name="Tracé 13796" d="M401.656 8.541a2.349 2.349 0 0 0-1.321-.174c-.418.069-1.446.759-1.511 1.242s-.707.931-.707 1.863.322 2.346.74 2.484a6.955 6.955 0 0 0 1.67.587 3.4 3.4 0 0 0 1.8-.311 3.335 3.335 0 0 0 1.028-1.794c.033-.483.739-1.434.129-2.425a3.4 3.4 0 0 0-1.824-1.474"/><path data-name="Tracé 13797" d="M384.472 31.781a2.376 2.376 0 0 0-1.341-.175c-.423.07-1.464.769-1.529 1.258s-.716.942-.716 1.886.326 2.375.749 2.514a7.035 7.035 0 0 0 1.692.594 3.439 3.439 0 0 0 1.821-.314 3.38 3.38 0 0 0 1.041-1.816c.033-.489.749-1.452.13-2.455a3.443 3.443 0 0 0-1.846-1.491"/><path data-name="Tracé 13798" d="M341.595 65.357a.782.782 0 0 0-.442-.058c-.139.023-.482.253-.5.414s-.236.311-.236.621.107.782.247.828a2.327 2.327 0 0 0 .557.2 1.139 1.139 0 0 0 .6-.1 1.114 1.114 0 0 0 .342-.6c.011-.161.246-.478.043-.809a1.136 1.136 0 0 0-.608-.491"/><path data-name="Tracé 13799" d="M300.845.124a1.416 1.416 0 0 0-.794-.1c-.25.041-.866.455-.9.744s-.423.558-.423 1.116.192 1.4.442 1.487a4.146 4.146 0 0 0 1 .351 2.026 2.026 0 0 0 1.078-.186 2 2 0 0 0 .615-1.074c.019-.289.443-.859.077-1.451a2.036 2.036 0 0 0-1.092-.883"/><path data-name="Tracé 13800" d="M269.513 29.303a1 1 0 0 0-.562-.073c-.177.03-.613.322-.641.527s-.3.4-.3.791.136.995.313 1.053a2.93 2.93 0 0 0 .709.249 1.434 1.434 0 0 0 .763-.132 1.414 1.414 0 0 0 .436-.76c.014-.2.314-.609.055-1.029a1.445 1.445 0 0 0-.774-.625"/><path data-name="Tracé 13801" d="M266.304 46.546a2 2 0 0 0-1.126-.146c-.355.058-1.229.645-1.283 1.056s-.6.792-.6 1.583.274 1.994.628 2.11a5.873 5.873 0 0 0 1.42.5 2.874 2.874 0 0 0 1.53-.264 2.843 2.843 0 0 0 .874-1.524c.027-.411.628-1.219.109-2.061a2.9 2.9 0 0 0-1.55-1.252"/><path data-name="Tracé 13802" d="M252.156 21.181a1.3 1.3 0 0 0-.731-.1c-.231.038-.8.419-.834.686s-.39.513-.39 1.028.178 1.295.408 1.37a3.838 3.838 0 0 0 .922.324 1.869 1.869 0 0 0 .993-.172 1.844 1.844 0 0 0 .567-.99c.018-.266.408-.791.071-1.337a1.88 1.88 0 0 0-1.007-.813"/><path data-name="Tracé 13803" d="M239.034 36.235a1.8 1.8 0 0 0-1.013-.132c-.32.053-1.106.58-1.155.95s-.541.712-.541 1.425.246 1.795.565 1.9a5.313 5.313 0 0 0 1.278.449 2.6 2.6 0 0 0 1.377-.237 2.556 2.556 0 0 0 .786-1.372c.024-.37.565-1.1.1-1.855a2.6 2.6 0 0 0-1.4-1.127"/><path data-name="Tracé 13804" d="M194.136 37.645a1.738 1.738 0 0 0-.982-.128c-.309.051-1.07.562-1.118.92s-.524.689-.524 1.38.238 1.738.547 1.84a5.138 5.138 0 0 0 1.238.434 2.5 2.5 0 0 0 1.333-.23 2.472 2.472 0 0 0 .762-1.329c.024-.357.547-1.062.095-1.8a2.524 2.524 0 0 0-1.351-1.091"/><path data-name="Tracé 13805" d="M189.489 92.019a1.7 1.7 0 0 0-.962-.125c-.3.05-1.049.55-1.1.9s-.513.676-.513 1.352.233 1.7.536 1.8a5.06 5.06 0 0 0 1.212.425 2.467 2.467 0 0 0 1.306-.225 2.425 2.425 0 0 0 .746-1.3c.024-.351.536-1.041.093-1.76a2.472 2.472 0 0 0-1.323-1.069"/><path data-name="Tracé 13806" d="M127.186 156.99a2.27 2.27 0 0 0-1.281-.166c-.4.067-1.4.733-1.459 1.2s-.683.9-.683 1.8.31 2.266.714 2.4a6.707 6.707 0 0 0 1.614.567 3.271 3.271 0 0 0 1.738-.3 3.223 3.223 0 0 0 .993-1.733c.031-.467.715-1.386.124-2.343a3.289 3.289 0 0 0-1.762-1.423"/><path data-name="Tracé 13807" d="M143.393 215.068a1.529 1.529 0 0 0-.858-.112c-.271.044-.936.492-.979.8s-.458.6-.458 1.207.209 1.519.479 1.608a4.469 4.469 0 0 0 1.082.38 2.195 2.195 0 0 0 1.165-.2 2.168 2.168 0 0 0 .667-1.162c.021-.313.479-.928.083-1.57a2.2 2.2 0 0 0-1.181-.954"/><path data-name="Tracé 13808" d="M143.364 270.945a.864.864 0 0 0-.487-.064c-.154.026-.532.28-.556.457s-.26.342-.26.685.118.863.271.914a2.566 2.566 0 0 0 .615.216 1.251 1.251 0 0 0 .662-.115 1.227 1.227 0 0 0 .378-.66c.012-.178.272-.527.047-.891a1.252 1.252 0 0 0-.671-.542"/><path data-name="Tracé 13809" d="M131.534 298.516a.9.9 0 0 0-.507-.066c-.16.026-.553.291-.578.476s-.271.357-.271.713.124.9.283.951a2.669 2.669 0 0 0 .64.224 1.3 1.3 0 0 0 .689-.119 1.274 1.274 0 0 0 .394-.686c.012-.185.283-.55.049-.928a1.3 1.3 0 0 0-.7-.564"/><path data-name="Tracé 13810" d="M97.538 278.654a1.855 1.855 0 0 0-1.044-.136c-.328.055-1.138.6-1.189.978s-.557.734-.557 1.467.253 1.847.582 1.956a5.47 5.47 0 0 0 1.316.462 2.673 2.673 0 0 0 1.417-.245 2.628 2.628 0 0 0 .81-1.412c.025-.381.582-1.13.1-1.909a2.679 2.679 0 0 0-1.437-1.161"/><path data-name="Tracé 13811" d="M83.659 332.546a2.1 2.1 0 0 0-1.187-.155c-.375.062-1.3.681-1.353 1.113s-.635.834-.635 1.67.288 2.1.664 2.226a6.22 6.22 0 0 0 1.5.526 3.041 3.041 0 0 0 1.613-.278 2.987 2.987 0 0 0 .921-1.608c.03-.433.663-1.286.115-2.173a3.044 3.044 0 0 0-1.635-1.32"/><path data-name="Tracé 13812" d="M13.48 330.544a2.32 2.32 0 0 0-1.306-.17c-.412.068-1.426.749-1.489 1.225s-.7.918-.7 1.837.317 2.312.729 2.449a6.831 6.831 0 0 0 1.647.578 3.34 3.34 0 0 0 1.774-.306 3.293 3.293 0 0 0 1.014-1.769c.032-.476.729-1.414.126-2.391a3.356 3.356 0 0 0-1.8-1.453"/><path data-name="Tracé 13813" d="M46.029 400.014a1.532 1.532 0 0 0-.861-.112c-.271.045-.939.493-.981.807s-.459.605-.459 1.21.209 1.524.48 1.614a4.539 4.539 0 0 0 1.086.381 2.206 2.206 0 0 0 1.169-.2 2.166 2.166 0 0 0 .668-1.166c.021-.314.48-.931.084-1.575a2.21 2.21 0 0 0-1.185-.957"/><path data-name="Tracé 13814" d="M3.705 441.916a2.455 2.455 0 0 0-1.386-.181c-.436.072-1.512.794-1.579 1.3s-.74.974-.74 1.949.336 2.454.773 2.6a7.276 7.276 0 0 0 1.748.613 3.549 3.549 0 0 0 1.879-.327 3.5 3.5 0 0 0 1.076-1.877c.033-.505.773-1.5.134-2.536a3.558 3.558 0 0 0-1.908-1.542"/><path data-name="Tracé 13815" d="M18.054 453.027a1.7 1.7 0 0 0-.954-.124c-.3.049-1.041.547-1.087.894s-.509.67-.509 1.341.232 1.689.533 1.788a4.949 4.949 0 0 0 1.2.422 2.434 2.434 0 0 0 1.3-.223 2.4 2.4 0 0 0 .74-1.292c.024-.348.533-1.033.092-1.746a2.451 2.451 0 0 0-1.313-1.061"/><path data-name="Tracé 13816" d="M80.802 463.653a1.994 1.994 0 0 0-1.123-.146c-.354.058-1.225.643-1.28 1.052s-.6.789-.6 1.579.272 1.988.626 2.1a5.879 5.879 0 0 0 1.416.5 2.87 2.87 0 0 0 1.525-.263 2.83 2.83 0 0 0 .871-1.52c.027-.409.627-1.215.109-2.054a2.883 2.883 0 0 0-1.545-1.249"/><path data-name="Tracé 13817" d="M73.153 545.187a1.187 1.187 0 0 0-.671-.087c-.212.035-.733.385-.766.629s-.358.472-.358.944.163 1.188.374 1.258a3.529 3.529 0 0 0 .847.3 1.715 1.715 0 0 0 .911-.157 1.692 1.692 0 0 0 .521-.909c.016-.244.374-.726.065-1.228a1.727 1.727 0 0 0-.924-.746"/><path data-name="Tracé 13818" d="M77.482 550.233a1.083 1.083 0 0 0-.61-.079c-.192.032-.666.349-.7.572s-.325.429-.325.858.148 1.08.341 1.144a3.208 3.208 0 0 0 .769.271 1.564 1.564 0 0 0 .829-.143 1.535 1.535 0 0 0 .474-.826c.015-.222.34-.661.059-1.117a1.572 1.572 0 0 0-.84-.678"/><path data-name="Tracé 13819" d="M93.834 525.16a1.59 1.59 0 0 0-.9-.117c-.283.047-.982.515-1.026.843s-.48.633-.48 1.266.218 1.593.5 1.687a4.723 4.723 0 0 0 1.135.4 2.307 2.307 0 0 0 1.223-.211 2.281 2.281 0 0 0 .7-1.218c.022-.328.5-.974.087-1.647a2.313 2.313 0 0 0-1.239-1"/><path data-name="Tracé 13820" d="M152.951 497.465a2.156 2.156 0 0 0-1.213-.158c-.382.064-1.323.7-1.383 1.137s-.647.853-.647 1.705.294 2.147.676 2.274a6.353 6.353 0 0 0 1.53.537 3.107 3.107 0 0 0 1.647-.284 3.061 3.061 0 0 0 .941-1.642c.03-.442.677-1.313.118-2.22a3.116 3.116 0 0 0-1.67-1.349"/><path data-name="Tracé 13821" d="M110.118 467.481a.847.847 0 0 0-.479-.062c-.151.024-.523.274-.546.449s-.256.337-.256.674.116.848.267.9a2.516 2.516 0 0 0 .6.212 1.225 1.225 0 0 0 .651-.112 1.206 1.206 0 0 0 .372-.649c.012-.175.267-.519.047-.877a1.235 1.235 0 0 0-.66-.533"/><path data-name="Tracé 13822" d="M166.453 424.796a1.937 1.937 0 0 0-1.091-.142c-.344.057-1.191.625-1.243 1.023s-.582.766-.582 1.534.264 1.932.608 2.045a5.694 5.694 0 0 0 1.377.483 2.791 2.791 0 0 0 1.482-.255 2.75 2.75 0 0 0 .846-1.477c.027-.4.609-1.181.107-2a2.807 2.807 0 0 0-1.5-1.213"/><path data-name="Tracé 13823" d="M193.731 473.2a1.35 1.35 0 0 0-.763-.1c-.24.039-.832.436-.869.715s-.408.536-.408 1.073.186 1.351.426 1.43a4.007 4.007 0 0 0 .962.338 1.956 1.956 0 0 0 1.036-.179 1.922 1.922 0 0 0 .593-1.033c.018-.279.425-.826.074-1.4a1.959 1.959 0 0 0-1.05-.848"/><path data-name="Tracé 13824" d="M218.174 473.871a1.672 1.672 0 0 0-.948-.123c-.3.05-1.034.543-1.08.888s-.505.666-.505 1.332.229 1.677.528 1.776a5 5 0 0 0 1.195.42 2.441 2.441 0 0 0 1.287-.223 2.386 2.386 0 0 0 .735-1.284c.023-.345.529-1.024.092-1.733a2.436 2.436 0 0 0-1.3-1.054"/><path data-name="Tracé 13825" d="M266.084 442a2.125 2.125 0 0 0-1.2-.156c-.377.062-1.307.686-1.365 1.123s-.639.842-.639 1.684.291 2.12.668 2.244a6.25 6.25 0 0 0 1.511.53 3.067 3.067 0 0 0 1.626-.28 3.023 3.023 0 0 0 .93-1.622c.029-.436.668-1.3.116-2.192a3.077 3.077 0 0 0-1.649-1.332"/><path data-name="Tracé 13826" d="M310.3 482.304a2.432 2.432 0 0 0-1.374-.179c-.434.072-1.5.787-1.567 1.289s-.734.966-.734 1.932.334 2.434.767 2.577a7.2 7.2 0 0 0 1.733.608 3.515 3.515 0 0 0 1.867-.322 3.465 3.465 0 0 0 1.067-1.861c.033-.5.767-1.488.133-2.516a3.53 3.53 0 0 0-1.892-1.528"/><path data-name="Tracé 13827" d="M340.869 434.307a1.836 1.836 0 0 0-1.031-.135c-.325.054-1.125.591-1.175.967s-.55.725-.55 1.45.25 1.826.576 1.933a5.354 5.354 0 0 0 1.3.456 2.637 2.637 0 0 0 1.4-.241 2.6 2.6 0 0 0 .8-1.4c.025-.376.576-1.116.1-1.887a2.646 2.646 0 0 0-1.42-1.147"/></g></g></g></g></g></g></g></svg>