<?xml version="1.0" encoding="utf-8"?>
<!-- Generator: Adobe Illustrator 24.3.2, SVG Export Plug-In . SVG Version: 6.00 Build 0)  -->
<svg version="1.1" id="Calque_1" xmlns="http://www.w3.org/2000/svg" xmlns:xlink="http://www.w3.org/1999/xlink" x="0px" y="0px"
	 viewBox="0 0 278.9 201.82" style="enable-background:new 0 0 278.9 201.82;" xml:space="preserve">
<style type="text/css">
	.st0{fill:none;stroke:#000000;stroke-width:0.25;stroke-miterlimit:10;}
	.st1{fill:#FFFFFF;}
	.st2{fill:#46544D;}
	.st3{fill:none;}
	.st4{fill:#7DAF95;}
	.st5{fill:none;stroke:#46544D;stroke-width:0.8545;stroke-miterlimit:10;}
	.st6{fill:#46544D;stroke:#46544D;stroke-width:0.8545;stroke-miterlimit:1;}
	.st7{fill:none;stroke:#E73635;stroke-width:3.4181;stroke-miterlimit:1;}
</style>
<path class="st3" d="M143.57,0.71c3.5,1.16,6.09,3.39,7.76,6.68c1.67,3.3,1.94,6.69,0.79,10.19c-1.14,3.5-3.36,6.09-6.66,7.76
	c-3.3,1.67-6.7,1.94-10.22,0.79c-3.52-1.14-6.11-3.36-7.79-6.66s-1.93-6.7-0.77-10.22c1.16-3.52,3.39-6.11,6.68-7.79
	C136.68-0.19,140.07-0.45,143.57,0.71z M137.17,24.64c2.85,1.33,5.51,1.38,7.97,0.13c2.46-1.25,4-3.41,4.61-6.51s0.13-6.2-1.46-9.32
	c-1.59-3.12-3.81-5.35-6.66-6.68c-2.85-1.33-5.51-1.37-7.97-0.13c-2.46,1.25-4,3.42-4.61,6.51c-0.61,3.09-0.13,6.2,1.46,9.32
	C132.1,21.08,134.32,23.3,137.17,24.64z"/>
<path class="st3" d="M143.96,175.69c3.5,1.16,6.09,3.39,7.76,6.68c1.67,3.3,1.94,6.69,0.79,10.19c-1.14,3.5-3.36,6.09-6.66,7.76
	c-3.3,1.67-6.7,1.94-10.22,0.79s-6.11-3.36-7.79-6.66c-1.67-3.3-1.93-6.7-0.77-10.22c1.16-3.52,3.39-6.11,6.68-7.79
	C137.06,174.78,140.46,174.53,143.96,175.69z M137.56,199.61c2.85,1.33,5.51,1.38,7.97,0.13c2.46-1.25,4-3.41,4.61-6.51
	s0.13-6.2-1.46-9.32c-1.59-3.12-3.81-5.35-6.66-6.68c-2.85-1.33-5.51-1.37-7.97-0.13c-2.46,1.25-4,3.42-4.61,6.51
	c-0.61,3.09-0.13,6.2,1.46,9.32C132.49,196.05,134.71,198.28,137.56,199.61z"/>
<path class="st3" d="M269.56,81.19c3.5,1.16,6.09,3.39,7.76,6.68c1.67,3.3,1.94,6.69,0.79,10.19c-1.14,3.5-3.36,6.09-6.66,7.76
	c-3.3,1.67-6.7,1.94-10.22,0.79s-6.11-3.36-7.79-6.66c-1.67-3.3-1.93-6.7-0.77-10.22c1.16-3.52,3.39-6.11,6.68-7.79
	C262.66,80.28,266.05,80.02,269.56,81.19z M263.15,105.11c2.85,1.33,5.51,1.38,7.97,0.13c2.46-1.25,4-3.41,4.61-6.51
	s0.13-6.2-1.46-9.32s-3.81-5.35-6.66-6.68c-2.85-1.33-5.51-1.37-7.97-0.13c-2.46,1.25-4,3.42-4.61,6.51
	c-0.61,3.09-0.13,6.2,1.46,9.32C258.08,101.55,260.3,103.78,263.15,105.11z"/>
<path class="st3" d="M17.59,81.19c3.5,1.16,6.09,3.39,7.76,6.68c1.67,3.3,1.94,6.69,0.79,10.19c-1.14,3.5-3.36,6.09-6.66,7.76
	c-3.3,1.67-6.7,1.94-10.22,0.79s-6.11-3.36-7.79-6.66s-1.93-6.7-0.77-10.22c1.16-3.52,3.39-6.11,6.68-7.79
	C10.69,80.28,14.09,80.02,17.59,81.19z M11.19,105.11c2.85,1.33,5.51,1.38,7.97,0.13c2.46-1.25,4-3.41,4.61-6.51s0.13-6.2-1.46-9.32
	c-1.59-3.12-3.81-5.35-6.66-6.68c-2.85-1.33-5.51-1.37-7.97-0.13c-2.46,1.25-4,3.42-4.61,6.51c-0.61,3.09-0.13,6.2,1.46,9.32
	C6.12,101.55,8.34,103.78,11.19,105.11z"/>
<g>
	<path d="M59.39,141.45h-5.76c2.11-0.54,3.18-3.04,3.21-7.5v-18.03c-0.03-4.47-1.1-6.97-3.21-7.5h3.35h9.11
		c3.08,0,5.82,0.77,8.21,2.31c2.39,1.54,4.22,3.61,5.47,6.21c1.26,2.6,1.89,5.47,1.89,8.61c0,5.35-1.37,9.34-4.11,11.97
		c-2.74,2.63-6.56,3.94-11.47,3.94H59.39z M59.96,109.07v31.72h6.14c1.95,0,3.67-0.31,5.17-0.94c1.49-0.63,2.69-1.44,3.59-2.43
		c0.9-0.99,1.62-2.18,2.17-3.56c0.55-1.38,0.93-2.75,1.13-4.11c0.2-1.35,0.31-2.78,0.31-4.29c0-2.61-0.3-4.93-0.9-6.96
		c-0.6-2.03-1.35-3.62-2.24-4.77c-0.9-1.15-1.93-2.09-3.09-2.83c-1.17-0.74-2.23-1.23-3.21-1.46c-0.98-0.24-1.95-0.35-2.93-0.35
		H59.96z"/>
	<path d="M175.71,133.94c0.5,1.35,1.08,2.57,1.72,3.66c0.64,1.09,1.33,1.95,2.05,2.6c0.72,0.64,1.43,1.06,2.12,1.25h-4.72h-0.05
		h-4.77c1.95-0.47,2.11-2.97,0.47-7.5l-3.16-8.69h-10.01l-3.16,8.69c-0.66,1.95-0.8,3.62-0.42,5s1.12,2.22,2.22,2.5h-4.72h-0.09
		h-4.72c1.2-0.31,2.5-1.16,3.92-2.52c1.42-1.37,2.47-3.03,3.16-4.98l8.5-23.32l-0.8-2.22h3.16L175.71,133.94z M159.61,124.6h9.54
		l-4.77-13.07L159.61,124.6z"/>
	<path d="M202.1,141.45l-11.56-29.59v22.09c0,1.32,0.23,2.53,0.68,3.63c0.46,1.1,1.01,1.97,1.68,2.62c0.66,0.64,1.35,1.06,2.08,1.25
		h-4.72h-0.09h-4.72c1.16-0.28,2.19-1.12,3.09-2.5c0.9-1.38,1.35-3.05,1.35-5v-18.03c0-1.95-0.45-3.62-1.35-5
		c-0.9-1.38-1.93-2.22-3.09-2.5h6.89l11.33,28.98l11.04-28.98h6.37c-2.11,0.54-3.18,3.04-3.21,7.5v18.03
		c0.03,4.47,1.1,6.97,3.21,7.5h-9.53c2.08-0.54,3.13-3.04,3.16-7.5v-23.84l-10.67,28.18l1.23,3.16H202.1z"/>
	<path d="M138.68,142.07c-3.32,0.69-6.74,0.73-10.08,0.32c-3.34-0.42-6.69-1.13-9.59-2.6c-1.45-0.74-2.74-1.69-3.86-2.85
		c-1.12-1.15-2.08-2.5-3.1-3.89c-0.51-0.69-1.05-1.39-1.63-2.08c-0.59-0.68-1.18-1.35-1.97-1.88c-0.67-0.47-1.46-0.88-2.32-1.04
		c0.02,0,0.04-0.01,0.05-0.01c3.05-0.69,5.47-1.94,7.27-3.73c1.79-1.79,2.77-3.85,2.93-6.18c0.13-1.76-0.16-3.28-0.85-4.55
		c-0.69-1.27-1.76-2.28-3.21-3.02c-1.45-0.74-3.11-1.28-5-1.63c-1.89-0.35-4.06-0.52-6.51-0.52h-6.7h-5.76
		c2.11,0.54,3.18,3.04,3.21,7.5v18.03c-0.03,4.47-1.1,6.97-3.21,7.5h9.53c-2.11-0.54-3.18-3.04-3.21-7.5v-5.33h6.14
		c0.88,0,1.73-0.03,2.55-0.09c0.03,0,0.06-0.01,0.08-0.01c0.1,0,0.23,0,0.39,0.03c0.14,0.04,0.28,0.08,0.42,0.13
		c0.38,0.16,0.73,0.35,1.05,0.58c0.32,0.23,0.58,0.54,0.86,0.8c0.28,0.26,0.54,0.54,0.8,0.83c0.52,0.58,1.11,1.14,1.67,1.72
		c0.56,0.59,1.1,1.22,1.64,1.86c1.07,1.3,2.17,2.69,3.5,3.92c1.32,1.23,2.88,2.25,4.51,2.97c1.64,0.73,3.36,1.18,5.07,1.51
		c1.72,0.32,3.44,0.49,5.17,0.6c3.45,0.2,6.95-0.07,10.27-0.98L138.68,142.07z M100.8,128h-6.14v-18.93h6.14
		c2.64,0,4.92,0.27,6.84,0.8c1.57,0.44,2.83,1.2,3.78,2.27c0.94,1.07,1.51,2.24,1.7,3.52c0.19,1.27,0.17,2.53-0.07,3.78
		c-0.24,1.24-0.65,2.32-1.25,3.23c-1.42,2.24-3.46,3.78-6.14,4.63l-0.85,0.23l-1.89,0.34C102.24,127.95,101.53,128,100.8,128z"/>
	<path d="M147.93,129.76l0.97,0.77c-1.16,1.37-2.55,2.45-4.15,3.23c-3.28,1.67-6.69,1.94-10.21,0.8c-3.52-1.15-6.12-3.37-7.8-6.67
		c-1.68-3.3-1.93-6.71-0.77-10.23c1.16-3.52,3.39-6.12,6.67-7.8c2.39-1.16,4.84-1.62,7.33-1.39c2.5,0.24,4.76,1.11,6.77,2.62
		l-1.9,2.36l-13.03,15.9c1.75,2.12,3.78,3.53,6.11,4.23c2.33,0.7,4.5,0.56,6.51-0.43C145.91,132.43,147.07,131.3,147.93,129.76z
		 M129.82,126.32c0.48,0.93,1.03,1.8,1.64,2.62l12.98-15.9c-1.71-1.64-3.59-2.69-5.64-3.16c-2.05-0.46-4-0.25-5.85,0.64
		c-2.46,1.23-4,3.39-4.62,6.49C127.71,120.11,128.21,123.21,129.82,126.32z"/>
	<path d="M42.8,72.1c3.59,0.47,6.46,1.65,8.61,3.54c2.15,1.89,3.31,4.12,3.47,6.7c0.13,1.76-0.16,3.28-0.85,4.56
		c-0.69,1.27-1.76,2.28-3.21,3.02c-1.45,0.74-3.11,1.28-5,1.63c-1.89,0.35-4.06,0.52-6.51,0.52h-6.7h-5.76
		c2.11-0.54,3.18-3.04,3.21-7.5V66.53c-0.03-4.47-1.1-6.97-3.21-7.5h3.35h6.18c4.63,0,8.38,0.67,11.26,2.01
		c2.88,1.34,4.32,3,4.32,4.98c0,1.57-0.79,2.87-2.38,3.89C47.98,70.93,45.72,71.66,42.8,72.1z M36.38,59.69h-3.21v12.18h3.21
		c2.61,0,4.89-0.19,6.84-0.57c1.07-0.19,2-0.47,2.78-0.85c0.79-0.38,1.38-0.8,1.77-1.27c0.39-0.47,0.68-0.97,0.87-1.51
		c0.19-0.53,0.24-1.07,0.14-1.6c-0.09-0.53-0.26-1.05-0.5-1.53c-0.24-0.49-0.54-0.94-0.92-1.35C45.11,60.85,41.44,59.69,36.38,59.69
		z M46.15,90.6c1.57-0.44,2.83-1.2,3.78-2.27c0.94-1.07,1.51-2.24,1.7-3.52c0.19-1.28,0.17-2.53-0.07-3.78
		c-0.24-1.24-0.65-2.32-1.25-3.23c-1.17-1.86-2.71-3.21-4.65-4.06c-1.94-0.85-4.05-1.27-6.35-1.27h-6.14V91.4h6.14
		C41.95,91.4,44.23,91.14,46.15,90.6z"/>
	<path d="M145.79,92.06l-11.56-29.59v22.09c0,1.32,0.23,2.53,0.68,3.63s1.01,1.97,1.68,2.62c0.66,0.64,1.35,1.06,2.08,1.25h-4.72
		h-0.09h-4.72c1.16-0.28,2.19-1.12,3.09-2.5c0.9-1.38,1.35-3.05,1.35-5V66.53c0-1.95-0.45-3.62-1.35-5c-0.9-1.38-1.93-2.22-3.09-2.5
		h6.89L147.35,88l11.04-28.98h6.37c-2.11,0.54-3.18,3.04-3.21,7.5v18.03c0.03,4.47,1.1,6.97,3.21,7.5h-9.53
		c2.08-0.54,3.13-3.04,3.16-7.5V60.72L147.73,88.9l1.23,3.16H145.79z"/>
	<path d="M178.71,66.53v18.03c0.03,2.11,0.31,3.82,0.85,5.14c0.54,1.32,1.32,2.11,2.36,2.36h-9.53c2.11-0.54,3.18-3.04,3.21-7.5
		V66.53c-0.03-4.47-1.1-6.97-3.21-7.5h9.53C179.81,59.56,178.74,62.06,178.71,66.53z"/>
	<path d="M213.38,92.06h-1.27l-17.89-30.73v23.22c0,0.97,0.13,1.91,0.4,2.81c0.27,0.9,0.61,1.66,1.04,2.29
		c0.42,0.63,0.9,1.16,1.42,1.58c0.52,0.42,1.05,0.7,1.58,0.83h-4.72h-0.09h-4.72c1.16-0.28,2.19-1.12,3.09-2.5
		c0.9-1.38,1.35-3.05,1.35-5V66.53c0-1.95-0.45-3.62-1.35-5c-0.9-1.38-1.93-2.22-3.09-2.5h6.89l17.37,29.78V66.53
		c-0.03-1.95-0.5-3.62-1.39-5c-0.9-1.38-1.91-2.22-3.04-2.5h4.72h0.05h4.72c-1.13,0.28-2.15,1.12-3.04,2.5
		c-0.9,1.38-1.36,3.05-1.39,5v23.36l1.27,2.17h-1.27H213.38z"/>
	<path d="M241.77,92.63c-3.12,0-5.98-0.76-8.59-2.29c-2.61-1.53-4.68-3.6-6.21-6.23c-1.53-2.63-2.29-5.48-2.29-8.57
		c0-3.08,0.76-5.94,2.29-8.57c1.53-2.63,3.59-4.7,6.21-6.23c2.61-1.53,5.47-2.29,8.59-2.29c3.78,0,7.17,1.13,10.19,3.4l-2.22,2.64
		c-2.2-2.2-4.59-3.67-7.17-4.39c-2.58-0.72-5.13-0.57-7.65,0.47c-1.64,0.76-3.03,1.87-4.18,3.35c-1.15,1.48-1.96,3.13-2.43,4.96
		c-0.47,1.83-0.61,3.81-0.42,5.95c0.19,2.14,0.75,4.22,1.68,6.25c0.93,2.03,2.13,3.82,3.61,5.38c1.48,1.56,3.07,2.74,4.77,3.56
		c1.7,0.82,3.48,1.31,5.33,1.46c1.86,0.16,3.62-0.17,5.29-0.99l0.05-0.05v-7.41c0-4.47-1.05-6.97-3.16-7.5h6.32v17.09l-2.74-1.65
		C246.74,92.08,244.32,92.63,241.77,92.63z"/>
	<path d="M96.35,59.77c3.5,1.16,6.09,3.39,7.76,6.68c1.67,3.3,1.94,6.69,0.79,10.19c-1.14,3.5-3.36,6.09-6.66,7.76
		c-3.3,1.67-6.7,1.94-10.22,0.79c-3.52-1.14-6.11-3.36-7.79-6.66c-1.67-3.3-1.93-6.7-0.77-10.22c1.16-3.52,3.39-6.11,6.68-7.79
		C89.45,58.86,92.85,58.61,96.35,59.77z M89.95,83.69c2.85,1.33,5.51,1.38,7.97,0.13c2.46-1.25,4-3.41,4.61-6.51s0.13-6.2-1.46-9.32
		s-3.81-5.35-6.66-6.68c-2.85-1.33-5.51-1.37-7.97-0.13c-2.46,1.25-4,3.42-4.61,6.51c-0.61,3.09-0.13,6.2,1.46,9.32
		C84.87,80.13,87.1,82.36,89.95,83.69z"/>
	<path d="M114.78,59.77c3.5,1.16,6.09,3.39,7.76,6.68c1.67,3.3,1.94,6.69,0.79,10.19c-1.14,3.5-3.36,6.09-6.66,7.76
		c-3.3,1.67-6.7,1.94-10.22,0.79s-6.11-3.36-7.79-6.66c-1.67-3.3-1.93-6.7-0.77-10.22c1.16-3.52,3.39-6.11,6.68-7.79
		C107.88,58.86,111.28,58.61,114.78,59.77z M108.38,83.69c2.85,1.33,5.51,1.38,7.97,0.13c2.46-1.25,4-3.41,4.61-6.51
		s0.13-6.2-1.46-9.32s-3.81-5.35-6.66-6.68c-2.85-1.33-5.51-1.37-7.97-0.13c-2.46,1.25-4,3.42-4.61,6.51
		c-0.61,3.09-0.13,6.2,1.46,9.32C103.31,80.13,105.53,82.36,108.38,83.69z"/>
	<path d="M112.84,90.15c-2.18,0.62-4.28,1.44-6.43,2.04c-1.07,0.3-2.16,0.55-3.24,0.74c-1.09,0.17-2.19,0.32-3.29,0.36
		c-0.55,0.05-1.1,0.02-1.65,0.04c-0.55-0.01-1.1-0.03-1.65-0.05c-0.55-0.05-1.1-0.09-1.65-0.15c-0.55-0.08-1.1-0.13-1.64-0.22
		c-2.18-0.35-4.29-0.89-6.4-1.55c-1.06-0.32-2.12-0.67-3.21-1c-1.08-0.34-2.19-0.61-3.3-0.88c-2.24-0.5-4.51-0.82-6.77-1.02
		c-1.64-0.14-3.3-0.22-4.96-0.16V66.1c0.03-4.47,1.1-6.97,3.21-7.5h-9.53c2.11,0.54,3.18,3.04,3.21,7.5v15.46
		c-0.02,3.58-0.72,6.16-2.08,7.32c-0.06,0.05-0.13,0.1-0.2,0.15c-0.17,0.12-0.43,0.28-0.53,0.32c-0.03,0.01-0.12,0.04-0.17,0.06
		c-0.07,0.03-0.09,0.04-0.18,0.07l-0.01,0c-0.72,0.28-1.42,0.61-2.1,0.97c-0.1,0.06-0.15,0.19-0.1,0.29c0.05,0.11,0.19,0.16,0.3,0.1
		c0.77-0.37,1.57-0.67,2.38-0.93l0.16-0.04l1.07-0.3c0.91-0.2,1.83-0.33,2.76-0.39c2.21-0.12,4.43,0.08,6.63,0.39
		c2.2,0.32,4.37,0.79,6.48,1.46c2.11,0.65,4.19,1.45,6.38,2.11c2.18,0.68,4.48,1.1,6.77,1.29c2.28,0.2,4.59,0.23,6.87-0.03
		c1.14-0.11,2.27-0.33,3.39-0.57c1.11-0.27,2.21-0.58,3.28-0.95c2.15-0.74,4.2-1.68,6.31-2.41l0,0c0.1-0.03,0.15-0.14,0.12-0.24
		C113.05,90.18,112.94,90.12,112.84,90.15z"/>
	<path d="M191.95,38.04l-28.36,0.15c-0.23,0-0.41-0.18-0.41-0.41c0-0.23,0.18-0.41,0.41-0.41h0l28.36,0.15
		c0.14,0,0.26,0.12,0.25,0.26C192.2,37.93,192.09,38.04,191.95,38.04z"/>
	<path d="M86.86,37.53l28.36-0.15c0.23,0,0.41,0.18,0.41,0.41c0,0.23-0.18,0.41-0.41,0.41h0l-28.36-0.15
		c-0.14,0-0.26-0.12-0.25-0.26C86.6,37.65,86.72,37.53,86.86,37.53z"/>
	<g>
		<path d="M148.81,41.5c-0.03-0.02-0.07-0.03-0.11-0.03c-0.06,0-0.12,0.03-0.15,0.07c-0.17,0.21-0.33,0.43-0.49,0.64
			c-0.21,0.28-0.41,0.55-0.63,0.8c-0.18,0.2-0.39,0.43-0.62,0.59c-0.19,0.12-0.35,0.18-0.51,0.18c-0.04,0-0.08,0-0.11-0.01
			c-0.45-0.05-0.87-0.66-1.08-1.02c-0.25-0.43-0.49-0.93-0.74-1.58c-0.17-0.44-0.33-0.89-0.49-1.35c-0.23-0.66-0.47-1.35-0.76-2.01
			c-0.25-0.56-0.5-1.1-0.87-1.65c-0.22-0.31-0.47-0.54-0.76-0.72c-0.12-0.07-0.26-0.12-0.41-0.16l-0.1-0.03l0.06-0.08
			c0.55-0.68,1.11-1.35,1.68-2.01l2.78-3.27l0.13-0.13l0.38-0.39l0.19-0.2c0.07-0.08,0.11-0.1,0.23-0.27
			c0.11-0.21,0.02-0.47-0.19-0.58c-0.21-0.11-0.47-0.02-0.58,0.19c0.02-0.02-0.06,0.1-0.1,0.16l-0.15,0.22l-0.31,0.44l-0.63,0.88
			l-0.55,0.76c-0.53,0.59-1.09,1.21-1.68,1.89c-0.61,0.7-1.22,1.42-1.81,2.13c-0.15,0.19-0.3,0.37-0.45,0.55l-0.13,0.16l-0.14-0.05
			l0.02-0.14c0.28-1.64,0.49-2.91,0.67-4.09c0.06-0.22,0.11-0.45,0.18-0.67c0.15-0.55,0.31-1.09,0.48-1.63
			c0.17-0.53,0.35-1.09,0.56-1.56l0.01-0.01c0.01-0.02,0.01-0.03,0.02-0.05c0.08-0.26-0.07-0.54-0.33-0.62
			c-0.16-0.05-0.32-0.01-0.44,0.09c-0.02,0.01-0.04,0.02-0.05,0.04c-0.05,0.05-0.1,0.12-0.12,0.2c-0.18,0.6-0.29,1.15-0.4,1.72
			c-0.01,0.08-0.02,0.15-0.04,0.23c-0.17,0.69-0.33,1.38-0.47,2.08c-0.25,1.21-0.49,2.51-0.79,4.2c-0.05,0.26-0.1,0.53-0.15,0.79
			c-0.21,1.11-0.42,2.26-0.49,3.43c-0.08,1.11-0.07,2.3,0.01,3.59c0,0.01,0,0.01,0,0.01c-0.01,0.18-0.18,0.37-0.2,0.5
			c-0.03,0.19,0.12,0.36,0.3,0.36c0.14,0,0.21-0.04,0.26-0.09c0.01,0,0.01-0.01,0.02-0.02c0.01-0.02,0.03-0.04,0.03-0.06
			c0-0.01,0.02-0.02,0.02-0.03l0.08-1.18c0.06-0.99,0.13-2.02,0.22-3.02c0.08-0.86,0.22-1.71,0.38-2.6
			c0.29-0.35,0.58-0.71,0.88-1.08l0.28-0.36l0.05-0.03l0.05,0.01c0.02,0,0.05,0.01,0.08,0.02c0.11,0.03,0.22,0.09,0.34,0.18
			c0.19,0.14,0.37,0.34,0.54,0.62c0.32,0.5,0.57,1.1,0.75,1.57c0.33,0.83,0.6,1.65,0.89,2.52l0.28,0.83
			c0.21,0.57,0.42,1.14,0.74,1.69c0.15,0.25,0.32,0.54,0.59,0.81c0.33,0.33,0.7,0.52,1.1,0.57c0.06,0.01,0.12,0.01,0.18,0.01
			c0.54,0,0.94-0.29,1.05-0.38c0.26-0.21,0.48-0.45,0.69-0.76c0.36-0.52,0.63-1.06,0.9-1.6C148.9,41.63,148.88,41.55,148.81,41.5z"
			/>
		<path d="M139.85,32.79c-0.04-0.07-0.12-0.11-0.21-0.11c-0.04,0-0.08,0.01-0.11,0.02c-1.33,0.61-2.66,1.26-3.8,1.82l-0.14,0.07
			l0.02-0.14c0.07-0.38,0.13-0.76,0.21-1.12c0.17-0.73,0.37-1.46,0.57-2.13c0.21-0.71,0.44-1.42,0.68-2.12l0.35-1.03
			c0.01-0.03,0.02-0.06,0.02-0.09c-0.01-0.17-0.02-0.27-0.18-0.43c-0.06-0.05-0.14-0.09-0.27-0.1c-0.09,0-0.17,0.03-0.21,0.05
			c-0.09,0.05-0.14,0.1-0.17,0.13c-0.14,0.14-0.23,0.26-0.32,0.39l-0.07,0.1c-0.25,0.35-0.48,0.64-0.7,0.91l-0.26,0.33
			c-0.16,0.2-0.31,0.39-0.46,0.59c-0.55,0.77-0.94,1.36-1.28,1.94c-0.88,1.46-1.57,3.05-2.05,4.73l-0.01,0.03l-0.03,0.01
			c-0.2,0.1-0.42,0.21-0.64,0.32c0,0,0,0-0.01,0c-0.09,0.04-0.3,0.15-0.57,0.3c-0.15,0.08-0.3,0.16-0.45,0.24
			c-0.55,0.11-1.15,0.33-1.67,0.64c-0.32,0.19-0.26,0.38-0.22,0.46c0.17,0.31,0.73,0.06,0.84,0.01c0.21-0.1,0.65-0.34,1.09-0.58
			c0.06-0.03,0.12-0.06,0.18-0.09c0.35-0.06,0.64-0.06,0.83,0c0.17,0.05,0.16,0.24,0.06,0.98c-0.05,0.36-0.11,0.82-0.14,1.37
			c0,0.04,0.02,0.08,0.04,0.12c0,0,0,0,0,0c0,0.01,0.01,0.01,0.01,0.02c0.01,0.01,0.01,0.03,0.01,0.03c0.02,0.06,0.07,0.1,0.17,0.12
			c0.07,0,0.13-0.04,0.16-0.1c0.01-0.01,0.01-0.02,0.02-0.03c0,0,0,0,0,0c0,0,0,0,0,0c0.03-0.04,0.06-0.08,0.06-0.13
			c0.01-0.11,0.02-0.21,0.02-0.32c0.04-0.21,0.08-0.41,0.11-0.62c0.06-0.37,0.13-0.73,0.2-1.1c0.08-0.39,0.19-0.8,0.31-1.25
			l0.01-0.03l0.67-0.35c0.49-0.25,0.98-0.51,1.47-0.76l0.58-0.29l-0.03,0.15c-0.28,1.33-0.53,2.68-0.76,4.01
			c-0.29,1.68-0.48,3.12-0.57,4.4c-0.14,1.42-0.2,2.91-0.2,4.42c0,0.08,0.07,0.15,0.17,0.16c0,0,0,0,0.01,0c0,0,0,0,0,0c0,0,0,0,0,0
			h0.01c0.03,0,0.05-0.01,0.07-0.02c0.07-0.02,0.12-0.07,0.13-0.15c0.08-0.69,0.15-1.37,0.39-1.98c0-0.01,0.01-0.02,0.01-0.02
			c0.04-0.15-0.04-0.3-0.19-0.34c-0.01,0-0.02,0.01-0.03,0c0.06-0.62,0.14-1.28,0.24-2.02c0.16-1.34,0.38-2.73,0.7-4.35l0.87-4.34
			c0.01-0.06,0.07-0.36,0.07-0.36l0.03-0.02c1.24-0.63,2.72-1.36,4.23-2.06C139.86,33.01,139.91,32.89,139.85,32.79z M135.11,33.2
			c-0.12,0.46-0.21,0.91-0.3,1.36l-0.09,0.46l-2.48,1.22l-0.16,0.06l0.05-0.16c0.47-1.4,1.11-2.76,1.9-4.04
			c0.41-0.68,0.88-1.34,1.28-1.89c0.14-0.2,0.29-0.39,0.43-0.58l0.26-0.34c0.16-0.21,0.32-0.43,0.47-0.64l0.03-0.05l0.14,0.06
			l-0.1,0.27c-0.26,0.7-0.52,1.41-0.77,2.11C135.51,31.83,135.29,32.54,135.11,33.2z"/>
	</g>
	<polygon points="106.02,166.84 106.02,166.7 105.59,157.62 104.19,157.15 104.35,160.6 104.33,160.61 100.57,165.19 100.57,165.06 
		100.41,155.88 98.74,155.32 99.27,168.43 104.45,162.62 104.82,170.26 113.1,160.15 111.58,159.64 	"/>
	<polygon points="115.94,160.55 113.75,172.18 121.5,173.64 121.77,172.21 115.49,171.03 116.19,167.31 121.59,168.33 
		121.86,166.92 116.46,165.9 117.15,162.24 123.2,163.38 123.46,161.97 	"/>
	<path d="M133.81,163.83c-0.92-0.65-2.12-1.03-3.59-1.14l-3.21-0.23l-0.86,11.8l3.78,0.28c1.04,0.07,2.04-0.09,2.96-0.5
		c0.92-0.41,1.69-1.03,2.28-1.87c0.59-0.83,0.94-1.83,1.02-2.97c0.07-1.02-0.08-2.02-0.45-2.96
		C135.38,165.28,134.73,164.47,133.81,163.83z M134.66,168.96c-0.07,0.92-0.32,1.7-0.76,2.34c-0.44,0.64-1.03,1.11-1.75,1.41
		c-0.59,0.24-1.25,0.37-1.96,0.37c-0.15,0-0.3-0.01-0.46-0.02l-1.98-0.14l0-0.05l0.65-8.87l0.05,0l2.07,0.15
		c0.78,0.06,1.51,0.29,2.17,0.68c0.66,0.4,1.17,0.96,1.53,1.66C134.58,167.19,134.73,168.03,134.66,168.96z"/>
	<path d="M149.03,171.85c0.49-0.9,0.72-1.93,0.67-3.07c-0.05-1.02-0.31-1.99-0.79-2.89c-0.48-0.9-1.22-1.62-2.21-2.16
		c-0.99-0.54-2.23-0.78-3.7-0.71l-3.21,0.14l0.52,11.82l3.79-0.17c1.04-0.05,2.01-0.33,2.88-0.84
		C147.84,173.46,148.53,172.74,149.03,171.85z M143.72,173.37L143.72,173.37l-1.98,0.09l0-0.05l-0.39-8.89l0.05,0l2.08-0.09
		c0.78-0.04,1.53,0.11,2.23,0.43c0.7,0.32,1.27,0.81,1.71,1.47c0.44,0.66,0.68,1.47,0.72,2.41c0.04,0.92-0.12,1.73-0.49,2.41
		c-0.36,0.68-0.89,1.22-1.58,1.6C145.39,173.12,144.6,173.33,143.72,173.37z"/>
	<rect x="153.53" y="162.1" transform="matrix(0.9915 -0.1302 0.1302 0.9915 -20.5657 21.5221)" width="1.5" height="11.83"/>
	<polygon points="171.06,171.13 168.32,159.23 166.86,159.57 168.84,168.04 168.74,167.98 158.22,161.18 158.21,161.19 
		160.94,173.07 162.42,172.73 160.47,164.38 	"/>
	<path d="M178.81,155.63c-0.61,0.06-1.23,0.21-1.85,0.44c-1.03,0.39-1.9,0.98-2.58,1.78c-0.69,0.79-1.13,1.73-1.3,2.81
		c-0.18,1.07-0.04,2.22,0.42,3.42c0.39,1.03,0.98,1.87,1.76,2.52c0.78,0.64,1.71,1.04,2.76,1.19c1.05,0.14,2.17,0,3.32-0.44
		c0.61-0.23,1.24-0.6,1.87-1.09h0c0.62-0.48,1.06-0.92,1.29-1.31l-1.67-4.44l-3.64,1.37l0.51,1.34l2.22-0.84l0.86,2.28l-0.02,0.02
		c-0.19,0.24-0.47,0.47-0.81,0.69c-0.34,0.22-0.71,0.4-1.11,0.55c-0.85,0.32-1.68,0.43-2.47,0.33c-0.8-0.1-1.5-0.4-2.1-0.9
		c-0.6-0.49-1.06-1.15-1.36-1.96c-0.33-0.87-0.43-1.71-0.32-2.5c0.12-0.79,0.45-1.5,0.99-2.1c0.54-0.6,1.25-1.08,2.11-1.4
		c0.41-0.15,0.89-0.25,1.44-0.3c0.53-0.05,0.99-0.04,1.38,0.01l-0.02-1.46c-0.29-0.04-0.59-0.06-0.91-0.06
		C179.32,155.59,179.07,155.6,178.81,155.63z"/>
</g>
</svg>
