<svg xmlns="http://www.w3.org/2000/svg" width="41.692" height="40.428" viewBox="0 0 41.692 40.428">
  <path id="Tracé_12" data-name="Tracé 12" d="M133.522,126.317a21.431,21.431,0,0,0-9.279-2.537l-3.834,3.836a19.314,19.314,0,0,1,2.445-.158,17.136,17.136,0,0,1,8.532,2.132,15.443,15.443,0,0,1,5.976,5.917,17.6,17.6,0,0,1,0,16.9,15.455,15.455,0,0,1-5.976,5.917,17.155,17.155,0,0,1-8.532,2.132,17.336,17.336,0,0,1-8.565-2.132,15.593,15.593,0,0,1-6.029-5.917,16.546,16.546,0,0,1-2.189-8.449,18.708,18.708,0,0,1,.127-2.127l-4.158,4.156a19.641,19.641,0,0,0,2.581,8.325,19.3,19.3,0,0,0,7.509,7.255,23.065,23.065,0,0,0,21.392.028A19.385,19.385,0,0,0,141,154.339a21.121,21.121,0,0,0,0-20.767A19.4,19.4,0,0,0,133.522,126.317Z" transform="translate(-102.04 -123.78)" fill="#b1af00"/>
</svg>