<svg xmlns="http://www.w3.org/2000/svg" xmlns:xlink="http://www.w3.org/1999/xlink" width="336.172" height="297" viewBox="0 0 336.172 297">
  <defs>
    <clipPath id="clip-path">
      <rect id="Rectangle_137" data-name="Rectangle 137" width="336.172" height="291.197" transform="translate(0 0)" fill="none"/>
    </clipPath>
  </defs>
  <g id="Groupe_345" data-name="Groupe 345" transform="translate(-1231 -1778)">
    <circle id="Ellipse_12" data-name="Ellipse 12" cx="137.5" cy="137.5" r="137.5" transform="translate(1266 1800)" fill="#fff"/>
    <g id="Groupe_344" data-name="Groupe 344" transform="translate(1231 1778.001)">
      <g id="Groupe_343" data-name="Groupe 343" transform="translate(0 -0.001)" clip-path="url(#clip-path)">
        <path id="Tracé_13885" data-name="Tracé 13885" d="M314.91,138.526c.753-1.02,1.62-1.992,2.333-2.133a5.712,5.712,0,0,1,1.337-.047c.244.01.489.02.732.015a12.377,12.377,0,0,0,1.982-.249l.387-.069c.436-.076.876-.142,1.315-.209a12.939,12.939,0,0,0,6.646-2.3c.266-.169.533-.337.8-.5a40.126,40.126,0,0,1,3.782-1.916l.157-.072c.166-.077,1.2-.624,1.334-.7.087-.049.148-.077.188-.1a.4.4,0,0,0,.259-.289.37.37,0,0,0-.117-.332l-.024-.026c-.15-.176-.34-.175-1.242-.089l-.37.036a35.437,35.437,0,0,0-5.229-.7,11.963,11.963,0,0,0-5.262.881,17.835,17.835,0,0,0-2.135,1.18c-.564.346-1.147.7-1.743.994-.138.067-.278.131-.417.195a5.749,5.749,0,0,0-2.818,2.356c-.384.507-.868,1.236-1.372,2.015.455-.932.938-1.863,1.469-2.794a39.327,39.327,0,0,1,2.828-4.282c.883-1.163,1.859-2.315,2.8-3.429,2.7-3.19,5.494-6.489,6.593-10.572a28.71,28.71,0,0,0,.643-3.567,20.973,20.973,0,0,1,.972-4.556l.059-.154a2.987,2.987,0,0,0,.233-2.346.335.335,0,0,0-.276-.192.33.33,0,0,0-.3.144,10.721,10.721,0,0,1-5.326,5.066,7.824,7.824,0,0,0-3.57,2.82c-.236.293-.48.6-.733.873-.379.416-.808.809-1.223,1.189a15.367,15.367,0,0,0-1.587,1.6,12.306,12.306,0,0,0-1.891,3.609,55.05,55.05,0,0,0-2.437,12.754,83.277,83.277,0,0,1-1.24,8.518q-.207-.508-.416-1.014c-1.572-3.817-3.2-7.765-3.145-11.887a47.2,47.2,0,0,0,.806-9.521,17.831,17.831,0,0,0-1.54-6.618A144.27,144.27,0,0,0,258.52,32.04,143.341,143.341,0,0,0,30.594,103.478a14.593,14.593,0,0,0-1.08,1.228,16.025,16.025,0,0,0-3.033,9.088,47.165,47.165,0,0,0,.805,9.521c.052,4.121-1.573,8.069-3.145,11.887q-.208.5-.416,1.013a83.211,83.211,0,0,1-1.24-8.518,55.035,55.035,0,0,0-2.437-12.754,12.294,12.294,0,0,0-1.89-3.609,15.366,15.366,0,0,0-1.588-1.605c-.415-.38-.843-.773-1.223-1.189-.253-.278-.5-.58-.733-.873a10.332,10.332,0,0,0-1.557-1.66,10.324,10.324,0,0,0-2.014-1.16,14.519,14.519,0,0,1-1.344-.7,14.561,14.561,0,0,1-3.981-4.364.325.325,0,0,0-.3-.144.334.334,0,0,0-.276.192,2.987,2.987,0,0,0,.232,2.346l.059.154a20.967,20.967,0,0,1,.971,4.556,28.715,28.715,0,0,0,.643,3.568c1.1,4.083,3.892,7.381,6.593,10.571.943,1.114,1.919,2.266,2.8,3.43a39.284,39.284,0,0,1,2.828,4.282c.531.931,1.014,1.862,1.469,2.793-.5-.778-.987-1.507-1.371-2.014a7.5,7.5,0,0,0-1.594-1.7,7.539,7.539,0,0,0-1.226-.657c-.139-.064-.278-.127-.415-.194-.6-.29-1.179-.647-1.743-.994a17.877,17.877,0,0,0-2.136-1.181,12,12,0,0,0-5.262-.881,35.029,35.029,0,0,0-5.2.7c-.048,0-.243-.017-.4-.032-.9-.085-1.092-.087-1.241.089l-.025.027a.369.369,0,0,0-.117.331.4.4,0,0,0,.259.289c.04.019.1.048.188.1.139.078,1.171.626,1.334.7l.157.072A40.106,40.106,0,0,1,5.726,128.1c.27.162.536.33.8.5a17.115,17.115,0,0,0,2.007,1.146,17.215,17.215,0,0,0,4.639,1.153c.44.067.879.134,1.315.21l.388.069a12.347,12.347,0,0,0,1.982.249c.243,0,.488-.005.732-.015a5.724,5.724,0,0,1,1.337.048c.713.142,1.58,1.113,2.333,2.133.444.69.879,1.354,1.253,1.881q.388.919.768,1.845a26.625,26.625,0,0,0-2.325,9.816c.01,3.147,1.124,6.336,2.2,9.42.052.149.1.3.154.447-.949-.976-1.915-1.968-2.889-2.943a17.112,17.112,0,0,0-3.4-2.835,18.263,18.263,0,0,0-3.109-1.337,17.6,17.6,0,0,1-3.013-1.294A17.719,17.719,0,0,1,6.186,143.8a.335.335,0,0,0-.579.324c1.606,4.148,3.267,8.437,4.5,12.781l.134.472a16.308,16.308,0,0,0,1.809,4.587,13.532,13.532,0,0,0,2.881,2.994,18.553,18.553,0,0,0,3.986,2.595c.755.346,1.546.618,2.31.881.594.2,1.209.416,1.794.658a15,15,0,0,1,4.072,2.54,33.266,33.266,0,0,0,4.7,19.417,49.962,49.962,0,0,0,3.39,4.714c.715.917,1.441,1.847,2.123,2.807q-.718-.752-1.514-1.488a.332.332,0,0,0-.032-.028,43.874,43.874,0,0,0-5.236-4.108c-.524-.354-1.063-.7-1.583-1.028a28.3,28.3,0,0,1-3.082-2.149c-1.139-4.1-4.605-7.051-7.77-9.5a23.065,23.065,0,0,0-3.194-2.18,24.671,24.671,0,0,0-3.441-1.418,22.326,22.326,0,0,0-3.412-1.007c-.39-.072-.785-.123-1.168-.172a13.49,13.49,0,0,1-1.767-.308,8.865,8.865,0,0,1-4.422-3.09.334.334,0,0,0-.057-.058h0a.338.338,0,0,0-.1-.054.341.341,0,0,0-.168-.014.336.336,0,0,0-.076.023.329.329,0,0,0-.124.093.336.336,0,0,0-.05.082h0a.335.335,0,0,0-.018.207h0c0,.011.006.022.009.033q.031.091.074.188a21.424,21.424,0,0,0,3.8,5.6c.447.528.909,1.074,1.342,1.619.52.654,1.027,1.344,1.519,2.012a24.217,24.217,0,0,0,4.756,5.286,19.126,19.126,0,0,0,6.4,2.864c2.335.644,4.974,1.372,7.506.371a29.693,29.693,0,0,0,3.079,2.139c.517.329,1.051.669,1.568,1.018a43.245,43.245,0,0,1,5.129,4.021q2.394,5.458,5.2,10.652c.065.161.137.332.219.517l.006.01s0,.005,0,.008a144.851,144.851,0,0,0,51.858,56.525,142.358,142.358,0,0,0,75.747,21.8c1.687.1,3.639.153,5.763.153a131.127,131.127,0,0,0,22.621-1.9h0a.335.335,0,0,0,.112-.022,44.417,44.417,0,0,0,8.932-2.507c.694-.3,1.382-.614,2.064-.942l.085-.011c1.293.108,2.531.234,3.724.388a13.693,13.693,0,0,1,2.737,1.095,29.476,29.476,0,0,1,3.694,2.521c.807.614,1.642,1.248,2.508,1.814a22.553,22.553,0,0,0,12.265,3.576,21.8,21.8,0,0,0,6.908-1.1.335.335,0,0,0-.1-.653,16.3,16.3,0,0,1-7.815-2.659c-.739-.435-1.48-.9-2.2-1.354a38.33,38.33,0,0,0-5.219-2.918c-3.882-1.667-8.514-2.188-14.436-1.618A119.481,119.481,0,0,0,228.631,276a16.468,16.468,0,0,0,2.888-1.217,10.023,10.023,0,0,0,2.157-1.691c1.331.165,2.655.417,3.951.664,1.375.262,2.344.458,3.314.653s1.921.387,3.273.645a25.91,25.91,0,0,0,2.7,1.211,22.341,22.341,0,0,1,3.282,1.536,22.43,22.43,0,0,0,14.794,3.066c5.587-.786,10.747-3.7,15.3-6.268a.335.335,0,0,0-.2-.625,9.39,9.39,0,0,0-2.092.582c-.272.1-.543.2-.818.286a13.526,13.526,0,0,1-6.9.194,31.489,31.489,0,0,1-6.651-2.365l-.351-.162a18.826,18.826,0,0,0-3.528-1.353,12.719,12.719,0,0,0-4.617-.137,19.717,19.717,0,0,0-5.525,1.567,23.545,23.545,0,0,1-3.266,1.149c-.653.191-1.328.39-2.038.653-1.326-.253-2.276-.445-3.224-.636-.972-.2-1.943-.391-3.321-.654-1.076-.205-2.17-.414-3.275-.575a25.882,25.882,0,0,1,6.571-2.1l.373-.084c5.007-1.128,9.737-2.448,12.584-6.177a15.128,15.128,0,0,0,1.763-3.11c2.4-.869,5-.823,7.763-.773a17.895,17.895,0,0,0,10.935-2.015c.369-.181.739-.362,1.111-.535a28.1,28.1,0,0,1,8.388-2.4.335.335,0,0,0,.029-.66l-10.3-2.2a20.874,20.874,0,0,0-5.055-.653,12.5,12.5,0,0,0-5.289,1.456c1.269-.94,2.635-1.8,3.981-2.648,2.765-1.739,5.624-3.539,7.594-5.993a26.626,26.626,0,0,0,4.3-9.124q.875-.487,1.751-.965c.621-.179,1.375-.427,2.153-.69a5.358,5.358,0,0,1,3.152-.213,5.71,5.71,0,0,1,1.074.8c.185.16.37.321.564.469a12.4,12.4,0,0,0,1.706,1.042l.346.187c.388.212.773.435,1.159.657a12.942,12.942,0,0,0,6.628,2.346c.314.034.627.069.94.11a39.973,39.973,0,0,1,4.155.86l.165.04c.178.043,1.331.259,1.48.283.1.016.164.032.207.042a.633.633,0,0,0,.151.022.341.341,0,0,0,.232-.086.37.37,0,0,0,.115-.332l0-.037c-.008-.231-.157-.348-.914-.842l-.313-.2a35.488,35.488,0,0,0-3.652-3.807,12.027,12.027,0,0,0-4.664-2.592,17.855,17.855,0,0,0-2.406-.409c-.656-.081-1.335-.164-1.982-.31-.149-.033-.3-.07-.446-.107a5.749,5.749,0,0,0-3.674.084c-.617.157-1.449.425-2.329.72.938-.445,1.9-.872,2.891-1.269a39.229,39.229,0,0,1,4.881-1.585c1.416-.359,2.9-.652,4.329-.935,4.1-.81,8.341-1.648,11.745-4.155a28.732,28.732,0,0,0,2.727-2.389,20.978,20.978,0,0,1,3.6-2.956l.142-.084a2.988,2.988,0,0,0,1.645-1.69.335.335,0,0,0-.423-.4,10.708,10.708,0,0,1-7.322.641,10.307,10.307,0,0,0-2.3-.348h-.008a10.348,10.348,0,0,0-2.245.328c-.367.082-.746.166-1.117.226-.556.089-1.137.129-1.7.167a15.343,15.343,0,0,0-2.242.265,12.3,12.3,0,0,0-3.728,1.643,55.058,55.058,0,0,0-9.857,8.453c-1.489,1.5-3.014,3.026-4.62,4.464,2.988-3.661,5.34-6.276,7.291-8.444,5.119-5.689,6.843-7.6,7.831-15.3q.12-.936.251-1.887a35.206,35.206,0,0,1,9.419-8.881c.517-.349,1.051-.689,1.568-1.018a29.674,29.674,0,0,0,3.079-2.138c2.531,1,5.171.273,7.506-.371a19.126,19.126,0,0,0,6.4-2.865,24.213,24.213,0,0,0,4.756-5.286c.491-.667,1-1.358,1.519-2.012.433-.545.9-1.092,1.343-1.62a21.422,21.422,0,0,0,3.8-5.6q.043-.1.074-.188c0-.009.006-.018.008-.028h0a.334.334,0,0,0-.017-.209h0a.345.345,0,0,0-.051-.084.331.331,0,0,0-.123-.092.347.347,0,0,0-.076-.023.34.34,0,0,0-.171.014.328.328,0,0,0-.1.055.321.321,0,0,0-.056.056,8.87,8.87,0,0,1-4.422,3.09,13.483,13.483,0,0,1-1.769.308c-.382.05-.777.1-1.167.172a22.377,22.377,0,0,0-3.412,1.007,24.748,24.748,0,0,0-3.441,1.418,23.047,23.047,0,0,0-3.194,2.18c-3.164,2.449-6.63,5.4-7.77,9.5a28.355,28.355,0,0,1-3.082,2.149c-.521.331-1.059.674-1.583,1.027a41.225,41.225,0,0,0-6.781,5.624c.682-.959,1.408-1.89,2.123-2.806a50.007,50.007,0,0,0,3.39-4.714,33.27,33.27,0,0,0,4.7-19.418,14.989,14.989,0,0,1,4.072-2.54c.585-.243,1.2-.454,1.794-.658.765-.263,1.556-.535,2.31-.881a18.547,18.547,0,0,0,3.986-2.595,13.538,13.538,0,0,0,2.881-2.994,16.3,16.3,0,0,0,1.809-4.586l.133-.472c1.237-4.344,2.9-8.633,4.5-12.781a.335.335,0,0,0-.579-.324,13.036,13.036,0,0,1-7.734,6.085,18.257,18.257,0,0,0-3.109,1.337,17.127,17.127,0,0,0-3.4,2.835c-.971.972-1.939,1.965-2.889,2.943.052-.149.1-.3.154-.447,1.077-3.084,2.191-6.273,2.2-9.42a26.615,26.615,0,0,0-2.325-9.816q.381-.927.768-1.845c.374-.527.808-1.191,1.253-1.88M330.1,132.46c-.275.165-.545.336-.817.508a12.312,12.312,0,0,1-6.388,2.2c-.445.067-.889.135-1.33.212l-.392.07a11.682,11.682,0,0,1-1.875.238c-.23,0-.462-.005-.693-.015a6.435,6.435,0,0,0-1.458.055,11.87,11.87,0,0,1,3.572-2.227,14.182,14.182,0,0,1,4.054-.71,19.739,19.739,0,0,0,3.275-.444c.627-.158,1.239-.378,1.83-.591a14.45,14.45,0,0,1,2.271-.682l.4-.071.54-.1a33.326,33.326,0,0,0-2.991,1.552m-11.314.842a6.94,6.94,0,0,1,1.117-.595c.144-.066.288-.132.431-.2.627-.3,1.224-.671,1.8-1.026a17.4,17.4,0,0,1,2.054-1.138,11,11,0,0,1,4.439-.834q.262,0,.531.009a31.408,31.408,0,0,1,4.564.585c-.463.1-.925.178-1.289.242l-.4.072a15.156,15.156,0,0,0-2.377.71c-.576.207-1.172.422-1.767.572a19.234,19.234,0,0,1-3.164.426,14.883,14.883,0,0,0-4.243.753,12.032,12.032,0,0,0-2.848,1.6,5.656,5.656,0,0,1,1.155-1.177M7.011,124.579a11.366,11.366,0,0,1,4.97.825,17.392,17.392,0,0,1,2.055,1.138c.577.355,1.174.721,1.8,1.026.142.069.285.134.428.2a6.926,6.926,0,0,1,1.12.6,5.664,5.664,0,0,1,1.155,1.177,12.032,12.032,0,0,0-2.847-1.6,14.879,14.879,0,0,0-4.243-.754,19.233,19.233,0,0,1-3.164-.426c-.595-.15-1.191-.364-1.767-.572a15.226,15.226,0,0,0-2.377-.71l-.405-.072c-.364-.064-.826-.145-1.289-.242a31.374,31.374,0,0,1,4.564-.585m11.159,6.141c-.2,0-.406.008-.606.016-.231.009-.462.019-.693.015A11.7,11.7,0,0,1,15,130.514l-.392-.07c-.441-.077-.885-.144-1.33-.212a16.709,16.709,0,0,1-4.46-1.1,16.656,16.656,0,0,1-1.928-1.1c-.271-.172-.542-.343-.817-.508A33.327,33.327,0,0,0,3.08,125.97l.54.1.4.071a14.47,14.47,0,0,1,2.271.682c.592.213,1.2.433,1.831.591a19.719,19.719,0,0,0,3.275.444,14.183,14.183,0,0,1,4.055.711,11.867,11.867,0,0,1,3.572,2.228,4.607,4.607,0,0,0-.852-.071M9.348,104.715a15.1,15.1,0,0,0,1.406.736,9.676,9.676,0,0,1,1.887,1.08,9.689,9.689,0,0,1,1.452,1.557c.242.3.493.611.759.9.4.438.84.842,1.266,1.232a14.8,14.8,0,0,1,1.52,1.534,11.67,11.67,0,0,1,1.78,3.413,54.538,54.538,0,0,1,2.4,12.6c.128,1.167.261,2.348.413,3.534-1.508-5.211-3.54-11.994-6.407-16.712a12.691,12.691,0,0,0-2.417-3.031c-.271-.238-.558-.459-.836-.673a12.615,12.615,0,0,1-1.011-.836,10.793,10.793,0,0,1-2.359-3.6,15.729,15.729,0,0,0-1.789-3.117,9.487,9.487,0,0,1-.615-.946,10.441,10.441,0,0,0,2.548,2.324m7.625,19.334c-.894-1.178-1.875-2.337-2.824-3.458-2.654-3.134-5.4-6.374-6.457-10.312a28.267,28.267,0,0,1-.627-3.484,26.039,26.039,0,0,0-.739-3.887,9.488,9.488,0,0,0,.557.838A15.2,15.2,0,0,1,8.6,106.739a11.329,11.329,0,0,0,2.5,3.8,13.307,13.307,0,0,0,1.064.882c.269.207.548.422.8.646a12.036,12.036,0,0,1,2.286,2.876c2.947,4.851,5.017,11.979,6.533,17.231-.588-1.256-1.219-2.509-1.936-3.767a39.973,39.973,0,0,0-2.877-4.356m1.208,65.277A17.967,17.967,0,0,1,12,186.571a23.724,23.724,0,0,1-4.617-5.146c-.495-.673-1.007-1.368-1.534-2.032-.439-.553-.9-1.1-1.355-1.635-.528-.624-1.062-1.255-1.567-1.906a8.885,8.885,0,0,0,1.191.9c.894.533,1.763,1.15,2.6,1.746.655.465,1.332.945,2.022,1.387a51.987,51.987,0,0,0,4.687,2.567,42.675,42.675,0,0,1,5.5,3.119,27.1,27.1,0,0,1,2.139,1.746,16.776,16.776,0,0,0,3.574,2.608c-2.15.59-4.427-.038-6.462-.6m3.329-2.512a27.576,27.576,0,0,0-2.193-1.789,43.183,43.183,0,0,0-5.583-3.171,51.482,51.482,0,0,1-4.627-2.533c-.677-.434-1.347-.91-2-1.37-.851-.6-1.731-1.229-2.649-1.775A9.784,9.784,0,0,1,2.989,175a7.828,7.828,0,0,0,1.95.827,14.124,14.124,0,0,0,1.855.325c.374.048.761.1,1.133.166a21.83,21.83,0,0,1,3.309.979,24.181,24.181,0,0,1,3.349,1.378,22.492,22.492,0,0,1,3.1,2.119c2.927,2.265,6.116,4.967,7.356,8.577a15.576,15.576,0,0,1-3.531-2.56M264.894,280.2a22.087,22.087,0,0,1-14.352-2.974,22.857,22.857,0,0,0-3.38-1.585c-.206-.083-.4-.165-.6-.248,2.425.3,4.758.425,7.031.548a73.393,73.393,0,0,1,9.971,1.01c.4.076.8.157,1.193.24a21.99,21.99,0,0,0,4.411.6q.217,0,.434-.009a19.943,19.943,0,0,0,3.366-.523c.554-.119,1.13-.245,1.711-.388a32.285,32.285,0,0,1-9.78,3.328m-18.37-5.825a24.1,24.1,0,0,0,3.352-1.181,19.053,19.053,0,0,1,5.337-1.514,12.061,12.061,0,0,1,4.375.126,18.325,18.325,0,0,1,3.4,1.308l.352.163a32.1,32.1,0,0,0,6.8,2.412,15.054,15.054,0,0,0,5.77.147c-1.01.32-2.056.547-3.085.768a14.444,14.444,0,0,1-7.934-.069c-.4-.083-.8-.165-1.2-.241a73.914,73.914,0,0,0-10.059-1.021c-2.542-.137-5.159-.28-7.886-.663.259-.079.52-.157.785-.234m51.31-35.9a12.319,12.319,0,0,1-6.367-2.26c-.39-.224-.779-.449-1.172-.664l-.35-.189a11.694,11.694,0,0,1-1.615-.983c-.183-.14-.358-.293-.533-.444a6.458,6.458,0,0,0-1.172-.865,11.871,11.871,0,0,1,4.18.485,14.167,14.167,0,0,1,3.613,1.972,19.68,19.68,0,0,0,2.837,1.694c.588.267,1.2.477,1.8.679a14.489,14.489,0,0,1,2.2.884l.356.193.484.262a33.257,33.257,0,0,0-3.307-.651c-.318-.043-.637-.078-.956-.113m-8.416-6.283a6.938,6.938,0,0,1,1.247.232c.153.038.306.076.46.111.679.153,1.375.238,2.047.321a17.349,17.349,0,0,1,2.316.391,11.363,11.363,0,0,1,4.4,2.454,31.384,31.384,0,0,1,3.2,3.3c-.422-.213-.834-.437-1.158-.614l-.361-.2a15.185,15.185,0,0,0-2.3-.927c-.58-.2-1.18-.4-1.738-.655a19.2,19.2,0,0,1-2.739-1.64,14.889,14.889,0,0,0-3.788-2.056,12.041,12.041,0,0,0-3.226-.523,5.71,5.71,0,0,1,1.638-.2m42.26-49.5c-.45.532-.916,1.083-1.356,1.636-.527.663-1.039,1.359-1.534,2.032a23.7,23.7,0,0,1-4.617,5.145,17.968,17.968,0,0,1-6.179,2.756c-2.036.561-4.313,1.189-6.462.6a16.762,16.762,0,0,0,3.575-2.608,27.043,27.043,0,0,1,2.139-1.746,42.658,42.658,0,0,1,5.5-3.119,51.922,51.922,0,0,0,4.688-2.567c.691-.442,1.368-.923,2.023-1.388.84-.6,1.709-1.213,2.6-1.746a8.875,8.875,0,0,0,1.191-.9c-.5.651-1.039,1.282-1.566,1.905m-13.191,3.041a22.461,22.461,0,0,1,3.1-2.119,24.252,24.252,0,0,1,3.349-1.378,21.932,21.932,0,0,1,3.309-.979c.372-.068.758-.118,1.132-.166a14.19,14.19,0,0,0,1.856-.325,7.835,7.835,0,0,0,1.949-.826,9.793,9.793,0,0,1-1.473,1.172c-.917.547-1.8,1.171-2.648,1.775-.648.46-1.319.936-2,1.37a51.467,51.467,0,0,1-4.628,2.533,43.217,43.217,0,0,0-5.582,3.17,27.529,27.529,0,0,0-2.193,1.789,15.587,15.587,0,0,1-3.532,2.561c1.24-3.61,4.43-6.312,7.356-8.577m-10.269-56.953a9.939,9.939,0,0,0-1.4-1.123,10.392,10.392,0,0,1-1.162-.9,8.387,8.387,0,0,1-1.708-2.835c-.183-.415-.371-.844-.581-1.255a23.2,23.2,0,0,0-2.1-3.186,14.593,14.593,0,0,1-2.65-4.639,14.644,14.644,0,0,1-.385-2.3c-.071-.619-.144-1.26-.278-1.886a19.553,19.553,0,0,0-.964-2.945c-.107-.276-.214-.552-.317-.83-.575-1.545-1.042-3.168-1.493-4.738a42.745,42.745,0,0,0-2.592-7.288l.286.524c.7,1.28,1.394,2.559,1.986,3.624.878,1.581,1.786,3.215,2.525,4.893.139.316.273.634.406.953a21.784,21.784,0,0,0,1.265,2.669c.294.5.63.977.953,1.438.255.363.519.739.756,1.117a27.345,27.345,0,0,1,2.5,5.848c.33.976.671,1.985,1.06,2.957a34.006,34.006,0,0,0,1.652,3.4c1.12,2.1,2.178,4.083,2.25,6.481v0c0,.005,0,.011,0,.017m.281-2.468a22.447,22.447,0,0,0-1.94-4.346,33.476,33.476,0,0,1-1.621-3.334c-.382-.956-.72-1.956-1.047-2.924a27.855,27.855,0,0,0-2.564-5.99c-.247-.393-.516-.776-.775-1.145-.317-.451-.644-.917-.925-1.393a21.328,21.328,0,0,1-1.224-2.588c-.135-.322-.27-.644-.411-.963-.751-1.706-1.667-3.355-2.552-4.948-.5-.9-1.075-1.953-1.662-3.029l.048.085c.1.168.185.326.27.473a41.209,41.209,0,0,0,8,9.925c.313.284.631.564.949.844a23.342,23.342,0,0,1,3.082,3.075,15.365,15.365,0,0,1,2.894,8.71,38.989,38.989,0,0,1-.523,7.549M50.729,62.525a142.666,142.666,0,0,1,256.259,47.567q-.161-.228-.331-.447c-.017-.022-.035-.043-.053-.065,0,0,0,0,0,0A143.35,143.35,0,0,0,32.22,101.949q-.322.286-.642.58a141.841,141.841,0,0,1,19.151-40m-23.579,51.3a15.365,15.365,0,0,1,2.893-8.711,23.352,23.352,0,0,1,3.084-3.076c.317-.279.635-.559.947-.843a41.217,41.217,0,0,0,8-9.926c.085-.147.175-.306.27-.474l.048-.085c-.587,1.077-1.162,2.13-1.662,3.03-.885,1.594-1.8,3.242-2.552,4.948-.141.319-.276.641-.411.963a21.356,21.356,0,0,1-1.225,2.587c-.281.476-.608.942-.924,1.392-.26.37-.529.753-.776,1.147a27.859,27.859,0,0,0-2.564,5.99c-.327.968-.665,1.968-1.047,2.923a33.53,33.53,0,0,1-1.621,3.334,22.454,22.454,0,0,0-1.94,4.347,38.968,38.968,0,0,1-.523-7.548m.8,10h0c.072-2.4,1.13-4.382,2.25-6.481a34.04,34.04,0,0,0,1.652-3.4c.388-.972.729-1.982,1.06-2.957a27.335,27.335,0,0,1,2.5-5.848c.238-.379.5-.755.757-1.118.324-.461.658-.938.953-1.437a21.817,21.817,0,0,0,1.265-2.669c.134-.318.267-.637.406-.953.738-1.678,1.646-3.312,2.524-4.893C41.91,93,42.607,91.725,43.3,90.445l.286-.524A42.765,42.765,0,0,0,41,97.209c-.452,1.57-.919,3.192-1.493,4.738-.1.277-.21.553-.317.829a19.576,19.576,0,0,0-.964,2.945c-.134.627-.207,1.267-.278,1.886a14.65,14.65,0,0,1-.385,2.3,14.592,14.592,0,0,1-2.65,4.639,23.205,23.205,0,0,0-2.1,3.186c-.21.41-.4.839-.581,1.254a8.384,8.384,0,0,1-1.708,2.836,10.343,10.343,0,0,1-1.162.9,9.916,9.916,0,0,0-1.4,1.123v-.017M10.568,149.166a18.137,18.137,0,0,0,3.127,1.348,17.712,17.712,0,0,1,3,1.284,16.564,16.564,0,0,1,3.26,2.73c1.159,1.16,2.316,2.351,3.436,3.5a23.171,23.171,0,0,1,2.734,3.178,19.874,19.874,0,0,1,2.056,4.445,68.809,68.809,0,0,1,2.069,7.121c-.475-1.166-.97-2.36-1.543-3.556a15.655,15.655,0,0,0-4.62-6.036c-.414-.307-.854-.586-1.279-.857a10.484,10.484,0,0,1-2.243-1.721,10.47,10.47,0,0,1-.878-1.179c-.228-.338-.465-.687-.731-1.014a13.863,13.863,0,0,0-2.379-2.142q-.229-.175-.455-.352a36.134,36.134,0,0,1-7.993-8.733,11.719,11.719,0,0,0,2.444,1.977m16.977,7.15c-.174,1.778-.336,3.479-.433,5.229l-.042-.074a59.871,59.871,0,0,0,.237-7.679l-.2-4.659c-.215-4.947-.435-10.04.715-14.774l-.009.279a13.973,13.973,0,0,0,.668,5.623c.1.35.2.7.286,1.051a21.994,21.994,0,0,1,.679,5.729,14.245,14.245,0,0,1-.716,4.549c-.1.274-.2.544-.31.814a10.15,10.15,0,0,0-.847,3.643Zm-1.109-7.154.2,4.658a55.406,55.406,0,0,1-.167,6.722q-.108-.153-.221-.3a22.114,22.114,0,0,0-1.105-7.717l-.2-.764c-.677-2.581-1.332-5.566-.53-8.319a17.226,17.226,0,0,1,.959-2.372c.281-.607.572-1.234.8-1.881.124-.345.228-.7.325-1.052a74.722,74.722,0,0,0-.064,11.026M21.448,167.8c-.749-.258-1.524-.524-2.249-.857a17.9,17.9,0,0,1-3.843-2.506,12.932,12.932,0,0,1-2.742-2.84,15.812,15.812,0,0,1-1.726-4.4l-.134-.474c-.855-3-1.91-5.972-3.008-8.885A36.815,36.815,0,0,0,15.7,156.45l.459.355a13.388,13.388,0,0,1,2.268,2.034c.247.3.475.64.695.966a11.139,11.139,0,0,0,.936,1.252,11.139,11.139,0,0,0,2.381,1.837c.415.264.845.537,1.24.83A15.016,15.016,0,0,1,28.1,169.51c.656,1.37,1.19,2.686,1.755,4.079v0a16.153,16.153,0,0,0-6.573-5.122c-.6-.25-1.229-.465-1.833-.673m14.269,27.552a49.428,49.428,0,0,1-3.345-4.649,32.6,32.6,0,0,1-4.636-18.486,16.12,16.12,0,0,1,3.378,4.734l0,0A54.117,54.117,0,0,0,34.4,185c.939,1.987,1.91,4.042,2.661,6.129a50.1,50.1,0,0,1,2.22,9.23,46.716,46.716,0,0,0-3.56-5.007m.859,3.425a27.823,27.823,0,0,1,3,3.606q.131.95.251,1.887c.068.528.083.925.1,1.276l.006.146q-1.761-3.4-3.35-6.916M168.343,286.36h-.009l-.01,0a141.685,141.685,0,0,1-75.4-21.7,144.224,144.224,0,0,1-38.841-35.8,143.056,143.056,0,0,0,154.051,48.171l-.246.206a72.005,72.005,0,0,1-11.294,7.382,131.337,131.337,0,0,1-28.251,1.736m42.245-10.728a44.046,44.046,0,0,0,7.594-8.9c.25-.411.49-.83.729-1.248a23.18,23.18,0,0,1,1.808-2.829c.474-.6,1.023-1.171,1.553-1.72.375-.389.763-.791,1.127-1.207a24.076,24.076,0,0,0,3.235-4.951l-1.682,5.8a28.391,28.391,0,0,1-1.917,5.277,24.276,24.276,0,0,1-4.84,5.978,17.522,17.522,0,0,1-3.559,2.83c-1.722.393-3.155.746-4.049.971M222.9,259.291c-.353.4-.736.8-1.105,1.182a17.774,17.774,0,0,0-3.46,4.681c-.237.413-.474.827-.721,1.233a41.574,41.574,0,0,1-6.952,8.247c.056-.148.111-.3.167-.453.22-.614.435-1.233.65-1.854,1.2-3.465,2.444-7.049,4.755-9.885a32.272,32.272,0,0,1,5.46-4.906,36.1,36.1,0,0,0,4.991-4.357,26.453,26.453,0,0,1-3.785,6.11m-17.414,22.847a38.877,38.877,0,0,1-6.768,2.054,64.708,64.708,0,0,0,9.6-6.435q.144-.119.285-.239l.013-.011.125-.107a6.468,6.468,0,0,1,2.982-1.077,11.764,11.764,0,0,0,2.209-.574,9.248,9.248,0,0,0,.952-.457c2.373-.541,5.276-1.154,8.049-1.613a44.352,44.352,0,0,0-5.155,2.164c-1.671.818-3.331,1.72-4.937,2.592-2.377,1.291-4.835,2.625-7.356,3.7m15.442,4.921c-.846-.554-1.672-1.181-2.47-1.787a29.919,29.919,0,0,0-3.78-2.576l-.059-.029a25.778,25.778,0,0,1,8.216,2.915c.516.3,1.029.634,1.526.956a16.288,16.288,0,0,0,8.128,3.008,42.189,42.189,0,0,0,4.389.6,22.026,22.026,0,0,1-15.95-3.085m3.207-3.934a37.845,37.845,0,0,1,5.127,2.869c.721.454,1.467.924,2.214,1.365a23.559,23.559,0,0,0,4.156,2c-1.019-.122-2.033-.3-3.03-.469a15.663,15.663,0,0,1-7.877-2.909c-.5-.328-1.024-.666-1.555-.975a29.724,29.724,0,0,0-11.438-3.473c-.1-.028-.207-.062-.31-.089,5.145-.356,9.244.2,12.712,1.685m7.054-8.926a15.959,15.959,0,0,1-2.774,1.165,116.449,116.449,0,0,1-16.895,4.546q.826-.443,1.64-.887c1.6-.869,3.254-1.767,4.911-2.579,5.049-2.472,9.2-3.6,13.075-3.543.557.008,1.115.042,1.672.093a9.09,9.09,0,0,1-1.63,1.2m44.11-17.08c-.377.175-.751.358-1.125.541a17.274,17.274,0,0,1-10.628,1.946,33.47,33.47,0,0,0-5.538.209,36.618,36.618,0,0,1,8.1-3.17,54.547,54.547,0,0,1,9.333-1.112c1.116-.068,2.556-.116,3.948-.163l.916-.031a28.768,28.768,0,0,0-5.007,1.779m-6.635-4.629q.172-.005.345-.005a22.052,22.052,0,0,1,4.548.644l7.153,1.526-1.343.046c-1.4.047-2.841.1-3.967.164a55.051,55.051,0,0,0-9.448,1.128,39.033,39.033,0,0,0-8.938,3.579,27.021,27.021,0,0,1,4.423-4.307,13.192,13.192,0,0,1,7.227-2.776m42.273-30.73a28.152,28.152,0,0,1-2.662,2.334c-3.284,2.419-7.45,3.242-11.478,4.038-1.441.285-2.931.579-4.364.942a40.023,40.023,0,0,0-4.965,1.612c-1.345.537-2.62,1.124-3.863,1.739,4.46-3.162,10.523-7.445,15.851-9.4a12.05,12.05,0,0,1,3.58-.823c.339-.016.69-.01,1.03,0a13.318,13.318,0,0,0,1.382-.026,11.323,11.323,0,0,0,4.325-1.408,15.2,15.2,0,0,1,3.206-1.272,9.479,9.479,0,0,0,.957-.308,26.047,26.047,0,0,0-3,2.578m-24.614,7.2a54.543,54.543,0,0,1,9.733-8.354,11.686,11.686,0,0,1,3.519-1.559,14.654,14.654,0,0,1,2.144-.251c.576-.039,1.172-.08,1.758-.174.391-.063.78-.149,1.156-.233a9.7,9.7,0,0,1,2.1-.312h.007a9.674,9.674,0,0,1,2.149.332,15.169,15.169,0,0,0,1.558.3,10.452,10.452,0,0,0,3.442-.229,9.492,9.492,0,0,1-1.072.357,15.716,15.716,0,0,0-3.341,1.322,10.791,10.791,0,0,1-4.087,1.341,12.613,12.613,0,0,1-1.312.024c-.35-.006-.712-.011-1.073.005a12.688,12.688,0,0,0-3.779.864c-5.183,1.9-11,5.937-15.428,9.072.858-.832,1.7-1.673,2.525-2.505M303.8,195.638a49.451,49.451,0,0,1-3.345,4.649,46.673,46.673,0,0,0-3.56,5.007,50.105,50.105,0,0,1,2.22-9.23c.751-2.087,1.722-4.142,2.661-6.129a54.146,54.146,0,0,0,3.28-8.045l0,0a16.112,16.112,0,0,1,3.378-4.735,32.6,32.6,0,0,1-4.636,18.486m21.617-33.981-.134.474a15.815,15.815,0,0,1-1.726,4.4,12.922,12.922,0,0,1-2.742,2.84,17.893,17.893,0,0,1-3.843,2.506c-.725.332-1.5.6-2.249.857-.6.208-1.228.423-1.832.673a16.151,16.151,0,0,0-6.573,5.122v0c.565-1.393,1.1-2.709,1.755-4.079a15.021,15.021,0,0,1,4.414-5.787c.395-.292.824-.565,1.24-.829a8.442,8.442,0,0,0,3.317-3.09c.22-.326.447-.662.695-.965a13.4,13.4,0,0,1,2.268-2.033q.23-.177.459-.355a36.815,36.815,0,0,0,7.957-8.616c-1.1,2.913-2.153,5.882-3.008,8.885m-9.2-2.191a16.568,16.568,0,0,1,3.26-2.73,17.7,17.7,0,0,1,3-1.285A18.1,18.1,0,0,0,325.6,154.1a11.714,11.714,0,0,0,2.445-1.978,36.142,36.142,0,0,1-7.994,8.734c-.151.118-.3.235-.455.352a13.879,13.879,0,0,0-2.379,2.141c-.266.327-.5.676-.731,1.013a7.806,7.806,0,0,1-3.122,2.9c-.425.27-.865.549-1.278.856a15.66,15.66,0,0,0-4.62,6.036c-.573,1.2-1.068,2.389-1.543,3.555A68.826,68.826,0,0,1,308,170.594a19.873,19.873,0,0,1,2.056-4.446,23.192,23.192,0,0,1,2.733-3.178l.025-.025c1.113-1.146,2.263-2.33,3.41-3.478m-7.594,1.79-.026-.27a10.142,10.142,0,0,0-.847-3.642c-.107-.271-.214-.541-.31-.815a14.246,14.246,0,0,1-.716-4.55,21.992,21.992,0,0,1,.679-5.729c.089-.352.188-.7.286-1.05a13.974,13.974,0,0,0,.668-5.624l-.009-.279c1.149,4.734.93,9.827.715,14.774l-.2,4.659a59.9,59.9,0,0,0,.237,7.679l-.042.074c-.1-1.749-.259-3.449-.432-5.227m1.074,4.224a55.482,55.482,0,0,1-.166-6.722l.2-4.658a74.67,74.67,0,0,0-.064-11.026c.1.355.2.707.325,1.052.232.646.522,1.274.8,1.881a17.292,17.292,0,0,1,.959,2.372c.8,2.753.147,5.738-.53,8.319l-.2.764a22.106,22.106,0,0,0-1.105,7.717q-.113.15-.221.3m2.678-4.214c-.21.6-.419,1.2-.621,1.8-.413.43-.822.87-1.213,1.33a24.065,24.065,0,0,1,1.13-6.766l.2-.766c.7-2.668,1.375-5.759.525-8.676a17.716,17.716,0,0,0-.994-2.466c-.275-.594-.559-1.208-.781-1.826a23.09,23.09,0,0,1-.733-2.749,13.365,13.365,0,0,0-1.69-4.7.335.335,0,0,0-.612.2l.1,2.949a13.344,13.344,0,0,1-.644,5.421c-.1.355-.2.709-.29,1.066a22.664,22.664,0,0,0-.7,5.9,14.9,14.9,0,0,0,.754,4.761c.1.283.209.562.32.841a12.8,12.8,0,0,1,.479,1.352,12.935,12.935,0,0,1,.324,2.109l.026.27c.211,2.156.41,4.193.486,6.341a29.1,29.1,0,0,0-1.082,2.708,71.457,71.457,0,0,0-2.929,11.253,53.113,53.113,0,0,1-3.267,8.025c-.5,1.058-1.008,2.136-1.49,3.229a45.688,45.688,0,0,0-1.451-10.419v0a17.508,17.508,0,0,0-.9-7.015c-.156-.581-.317-1.182-.458-1.769-.361-1.506-.623-3.086-.877-4.613-.613-3.693-1.248-7.513-3.324-10.694a24.5,24.5,0,0,0-3.5-4.026,28.021,28.021,0,0,0-5.673-4.554.335.335,0,0,0-.453.462c.713,1.211,1.483,2.407,2.287,3.555l.179.255a8.6,8.6,0,0,1,1.936,6.671c0,.322,0,.643,0,.962a27.79,27.79,0,0,0,8.8,19.667c.177.163.355.323.535.484.257.23.516.464.772.708a44.615,44.615,0,0,1,1.464,10.507q.036.6.073,1.2c-.214.524-.418,1.051-.609,1.581a62.441,62.441,0,0,0-2.8,13.283c-.961,7.492-2.515,9.219-7.664,14.941-2.157,2.4-4.8,5.336-8.253,9.63l.107-.366c1.151-3.965,2.341-8.065,4.952-11.255a47.162,47.162,0,0,0,6.565-6.942,16.026,16.026,0,0,0,3.294-9,23.85,23.85,0,0,0-.5-4.451c-.073-.414-.147-.828-.214-1.242A40.545,40.545,0,0,1,293.9,187.9c.025-.167.054-.346.083-.535.248-1.568.585-3.711.175-5.078l0-.011c0-.005,0-.011,0-.016a.335.335,0,0,0-.046-.092c0-.005-.009-.009-.013-.014a.333.333,0,0,0-.07-.067l-.029-.018a.333.333,0,0,0-.089-.034c-.007,0-.012-.006-.018-.007h-.008l-.011,0a.336.336,0,0,0-.106.006.314.314,0,0,0-.031.011.327.327,0,0,0-.077.035l-.031.021a.347.347,0,0,0-.061.064c-.005.008-.012.014-.017.022l-.005.007a10.105,10.105,0,0,0-1.2,2.98,39.6,39.6,0,0,1-2.585,7.685c-.63,1.52-1.281,3.092-1.8,4.682-.093.284-.183.57-.272.855a19.1,19.1,0,0,1-1.042,2.8c-.271.544-.6,1.076-.927,1.59a11.574,11.574,0,0,0-2.055,7.649,22.7,22.7,0,0,1-.33,3.691c-.088.433-.205.876-.319,1.305a9.012,9.012,0,0,0-.448,3.546,11,11,0,0,0,.367,1.524,5.059,5.059,0,0,1,.318,2.588c-1.981,3.025-3.015,6.587-4.019,10.047-1.132,3.9-2.3,7.935-4.827,11.079-1.9,2.366-4.71,4.135-7.428,5.845-2.834,1.783-5.764,3.627-7.74,6.177a32.772,32.772,0,0,0-2.628,2.775c.351-.883.712-1.781,1.136-2.641l.1-.16a29.038,29.038,0,0,0,3.768-5.8c.563-1.037,1.145-2.109,1.771-3.112a44.55,44.55,0,0,1,6.018-7.137c2.874-2.962,5.845-6.025,7.453-9.9,2.28-5.5,1.292-11.04.245-16.911l-.142-.8a.339.339,0,0,0-.024-.066.329.329,0,0,0-.014-.038.316.316,0,0,0-.3-.172l-.013,0H276.6a.3.3,0,0,0-.036.011.324.324,0,0,0-.074.022.309.309,0,0,0-.044.027.329.329,0,0,0-.055.045.314.314,0,0,0-.032.04.331.331,0,0,0-.051.113.264.264,0,0,0-.01.03l-.046.325c-.528,3.757-.984,7-3.423,9.742a19.663,19.663,0,0,1-2.5,2.231c-.466.369-.947.752-1.4,1.151a36.214,36.214,0,0,0-5.316,6.243c-1.9,2.618-3.525,5.013-4.269,7.809a27.579,27.579,0,0,0-.623,6.936c-.017,3.209-.033,6.239-1.5,8.917,0,0,0,.005,0,.008-.483.961-.883,1.964-1.273,2.945a20.193,20.193,0,0,1-2.465,4.873c-2.71,3.549-7.317,4.83-12.2,5.929l-.373.083a31.994,31.994,0,0,0-5.916,1.747c.28-.4.551-.813.807-1.26a24.737,24.737,0,0,0,1.867-4.143c.055-.081.109-.162.156-.247,4.862-7.757,6.877-14.156,6.337-20.114a20.051,20.051,0,0,0-.81-4.1c-.389-1.26-.907-2.487-1.406-3.675l-4.556-10.816c0-.007-.009-.013-.012-.02a.309.309,0,0,0-.02-.033.333.333,0,0,0-.051-.06.31.31,0,0,0-.029-.026.33.33,0,0,0-.1-.051l-.019,0a.34.34,0,0,0-.079-.012h-.006c-.007,0-.013,0-.02,0s-.009,0-.013,0-.013.005-.021.007a.33.33,0,0,0-.085.028.313.313,0,0,0-.03.015.332.332,0,0,0-.086.074h0a.336.336,0,0,0-.05.088c0,.008,0,.015-.007.023l0,.005a4.907,4.907,0,0,0-.075,2.389c.023.173.046.345.064.516a13.817,13.817,0,0,1-.753,5.085c-.147.531-.3,1.081-.429,1.625a23.687,23.687,0,0,0-.217,9.268l.055.333a7.105,7.105,0,0,1-.005,3.354c-.029.153-.059.305-.086.458a14.24,14.24,0,0,0,.466,7.007c.217.643.488,1.273.749,1.882a19.219,19.219,0,0,1,.893,2.357,7.287,7.287,0,0,1,.238,2.748c-.079.22-.163.438-.253.651,0,0,0,.006,0,.009s0,.005-.005.009a28.16,28.16,0,0,1-2.176,5.03,13.494,13.494,0,0,1-1.787,2.467c-.753-.085-1.511-.144-2.271-.155a20.427,20.427,0,0,0-2.191.091h0a79.393,79.393,0,0,0-12.485,1.929,25.868,25.868,0,0,0,2.188-1.939,24.875,24.875,0,0,0,4.968-6.149,28.921,28.921,0,0,0,1.967-5.4l2.964-10.214a.335.335,0,0,0-.614-.256c-1.543,2.768-4.031,4.685-6.666,6.714a32.756,32.756,0,0,0-5.571,5.013c-2.386,2.928-3.649,6.568-4.869,10.089-.214.618-.428,1.235-.648,1.847a7.675,7.675,0,0,1-.851,1.833c-.055.079-.115.154-.175.229A142.426,142.426,0,0,1,41.087,207.882a5.8,5.8,0,0,1-.5-2.364c-.014-.365-.029-.779-.1-1.336a62.443,62.443,0,0,0-2.8-13.283c-.191-.53-.395-1.057-.609-1.581q.038-.6.073-1.2a44.611,44.611,0,0,1,1.463-10.506c.255-.241.511-.473.766-.7.182-.163.362-.325.541-.49a27.789,27.789,0,0,0,8.8-19.667c0-.319,0-.64,0-.962a8.6,8.6,0,0,1,1.937-6.673l.178-.253c.8-1.148,1.574-2.344,2.287-3.555a.335.335,0,0,0-.453-.462A28.015,28.015,0,0,0,47,149.4a24.522,24.522,0,0,0-3.5,4.026c-2.076,3.181-2.711,7-3.324,10.694-.254,1.528-.516,3.107-.877,4.614-.141.587-.3,1.188-.458,1.77a17.508,17.508,0,0,0-.9,7.014v0a45.711,45.711,0,0,0-1.451,10.419c-.481-1.093-.99-2.171-1.489-3.229a53.087,53.087,0,0,1-3.266-8.024,71.465,71.465,0,0,0-2.929-11.254,28.99,28.99,0,0,0-1.082-2.708c.076-2.148.275-4.187.486-6.343l.026-.267a12.891,12.891,0,0,1,.324-2.109,12.724,12.724,0,0,1,.479-1.353c.11-.279.221-.557.32-.84a14.9,14.9,0,0,0,.754-4.762,22.674,22.674,0,0,0-.7-5.9c-.091-.357-.191-.712-.29-1.067a13.342,13.342,0,0,1-.643-5.42l.1-2.949a.335.335,0,0,0-.612-.2,13.366,13.366,0,0,0-1.689,4.7,23.165,23.165,0,0,1-.733,2.748c-.222.618-.506,1.232-.781,1.826a17.684,17.684,0,0,0-.994,2.466c-.85,2.917-.175,6.008.525,8.676l.2.766a24.071,24.071,0,0,1,1.13,6.766c-.391-.46-.8-.9-1.213-1.33-.2-.6-.412-1.2-.622-1.8-1.059-3.031-2.154-6.166-2.164-9.2-.013-4.031,1.586-7.915,3.133-11.671,1.372-3.332,2.784-6.762,3.121-10.362a5.06,5.06,0,0,1,1.863-1.826,11.011,11.011,0,0,0,1.237-.963,9.012,9.012,0,0,0,1.86-3.052c.179-.406.363-.827.564-1.219a22.72,22.72,0,0,1,2.044-3.092,15.309,15.309,0,0,0,2.757-4.858,15.365,15.365,0,0,0,.405-2.4c.069-.6.14-1.227.267-1.822a19.075,19.075,0,0,1,.934-2.843c.108-.279.216-.558.32-.838.584-1.569,1.054-3.2,1.509-4.786a39.616,39.616,0,0,1,2.769-7.62,10.1,10.1,0,0,0,.923-3.076s0-.006,0-.009,0-.018,0-.027a.334.334,0,0,0-.008-.09.309.309,0,0,0-.01-.034.334.334,0,0,0-.04-.08c-.005-.008-.009-.016-.015-.023a.332.332,0,0,0-.08-.072l-.01,0-.006-.005c-.006,0-.013,0-.019-.006a.322.322,0,0,0-.089-.028l-.036,0a.336.336,0,0,0-.093.008l-.022,0a.344.344,0,0,0-.093.044l-.016.012,0,0c-1.174.812-2.247,2.7-3.032,4.083-.094.166-.184.324-.268.47a40.548,40.548,0,0,1-7.871,9.765c-.128.116-.259.23-.389.345a142.633,142.633,0,0,1,272.349,7.375c-.67-.688-1.39-1.324-2.1-1.945-.316-.278-.631-.555-.941-.837a40.535,40.535,0,0,1-7.872-9.764c-.084-.146-.173-.3-.268-.47-.785-1.382-1.858-3.271-3.033-4.083l0,0-.016-.012a.328.328,0,0,0-.094-.044l-.016,0a.329.329,0,0,0-.1-.008l-.033,0a.328.328,0,0,0-.091.029c-.006,0-.013,0-.019.006l-.006,0-.01,0a.332.332,0,0,0-.08.072c-.006.007-.009.015-.015.023a.337.337,0,0,0-.041.08.294.294,0,0,0-.01.034.319.319,0,0,0-.008.09c0,.009,0,.018,0,.027s0,.006,0,.009a10.1,10.1,0,0,0,.923,3.076,39.6,39.6,0,0,1,2.769,7.62c.455,1.582.926,3.217,1.509,4.786.1.28.212.559.32.838a19.112,19.112,0,0,1,.934,2.843c.127.594.2,1.218.267,1.821a15.364,15.364,0,0,0,.405,2.4,15.315,15.315,0,0,0,2.757,4.858,22.715,22.715,0,0,1,2.044,3.091c.2.393.385.813.564,1.219a9.015,9.015,0,0,0,1.86,3.052,11.057,11.057,0,0,0,1.237.963,5.058,5.058,0,0,1,1.863,1.825c.337,3.6,1.749,7.029,3.121,10.362,1.547,3.756,3.146,7.64,3.133,11.671-.01,3.035-1.1,6.169-2.164,9.2m-14.727,19.8c-.4-.886-.81-1.812-1.209-2.715-.546-1.239-1.111-2.52-1.655-3.687a17.612,17.612,0,0,1-2.2-7.789c-.033-.369-.066-.739-.105-1.108a22.952,22.952,0,0,0-2.318-8.331A19.224,19.224,0,0,0,287.852,154c.292.276.576.551.85.819a23.908,23.908,0,0,1,3.41,3.913c2,3.063,2.622,6.812,3.225,10.437.256,1.539.52,3.131.886,4.66.143.6.3,1.2.462,1.787a21.431,21.431,0,0,1,.969,5.448m-8.079-23.319a22.3,22.3,0,0,1,2.246,8.091c.039.365.071.731.1,1.1a18.235,18.235,0,0,0,2.258,8.012c.541,1.161,1.1,2.439,1.649,3.674.357.809.721,1.634,1.082,2.435-.07-.063-.141-.127-.211-.191a27.107,27.107,0,0,1-8.582-19.184c0-.315,0-.633,0-.951a9.229,9.229,0,0,0-2.058-7.058l-.178-.254c-.356-.509-.7-1.03-1.043-1.555a20.925,20.925,0,0,1,4.737,5.883m3.73,42.8c.068.417.142.835.216,1.252a23.357,23.357,0,0,1,.493,4.325,15.368,15.368,0,0,1-3.168,8.615,38.963,38.963,0,0,1-5.115,5.576,22.454,22.454,0,0,0,1.193-4.608,33.489,33.489,0,0,1,.811-3.617c.3-.985.657-1.978,1-2.939a27.85,27.85,0,0,0,1.73-6.282c.052-.461.081-.928.108-1.38.034-.549.068-1.118.146-1.665a21.293,21.293,0,0,1,.656-2.787c.1-.336.19-.672.279-1.009.477-1.8.788-3.661,1.09-5.46.17-1.016.377-2.2.59-3.407l-.015.1c-.03.191-.059.371-.084.539a41.222,41.222,0,0,0,.068,12.749m-.512-14.168c-.253,1.437-.506,2.874-.708,4.078-.3,1.784-.608,3.628-1.077,5.4-.088.333-.182.666-.276,1a21.778,21.778,0,0,0-.674,2.876c-.081.574-.117,1.155-.151,1.718-.027.443-.055.9-.105,1.345a27.352,27.352,0,0,1-1.694,6.129c-.35.969-.713,1.97-1.015,2.973a34.018,34.018,0,0,0-.829,3.689c-.433,2.34-.842,4.55-2.281,6.47h0l-.011.014a9.915,9.915,0,0,0-.4-1.753,10.338,10.338,0,0,1-.346-1.429,8.388,8.388,0,0,1,.432-3.282c.116-.438.236-.892.328-1.343a23.211,23.211,0,0,0,.343-3.8,10.949,10.949,0,0,1,1.953-7.317c.331-.528.673-1.074.959-1.648a19.6,19.6,0,0,0,1.082-2.9c.089-.283.177-.566.269-.847.514-1.566,1.16-3.126,1.786-4.635A42.765,42.765,0,0,0,292.9,185.8l-.1.582m-16.558,43.633c-1.559,3.757-4.485,6.773-7.315,9.69a45.026,45.026,0,0,0-6.105,7.249c-.637,1.021-1.224,2.1-1.792,3.147l-.1.187.012-.033a35.188,35.188,0,0,0,.987-4.423,21.762,21.762,0,0,1,1.868-6.5A21.435,21.435,0,0,1,268.381,234a31.419,31.419,0,0,0,3.65-3.822,25.291,25.291,0,0,0,2.842-5.089,29.876,29.876,0,0,0,2.034-8.918c.787,4.785,1.188,9.364-.671,13.844m-1.975-5.2a24.685,24.685,0,0,1-2.763,4.955,30.948,30.948,0,0,1-3.574,3.738,16.745,16.745,0,0,0-6.664,12.2,34.7,34.7,0,0,1-.967,4.338,16.945,16.945,0,0,1-1.359,3.062,30.013,30.013,0,0,0,.448-6.1,27.1,27.1,0,0,1,.6-6.768c.714-2.685,2.309-5.025,4.164-7.588a35.666,35.666,0,0,1,5.215-6.132c.445-.389.92-.766,1.379-1.131a20.158,20.158,0,0,0,2.587-2.31,12.548,12.548,0,0,0,2.728-5.335,27.372,27.372,0,0,1-1.8,7.065m-36.2,36.476a19.711,19.711,0,0,0-.922-2.44c-.256-.6-.521-1.214-.73-1.832a13.568,13.568,0,0,1-.441-6.676c.026-.15.055-.3.084-.449a7.726,7.726,0,0,0,.008-3.59l-.054-.329a23.023,23.023,0,0,1,.207-9.006c.127-.533.278-1.076.423-1.6a17.828,17.828,0,0,0,.81-4.276c.249,1.135.482,2.208.59,3.165.126,1.119.151,2.274.175,3.391a30.108,30.108,0,0,0,.3,4.356c.108.643.259,1.285.406,1.905a14.5,14.5,0,0,1,.34,6.589c-.047.421-.094.841-.132,1.262-.1,1.141-.156,2.3-.211,3.531a42.722,42.722,0,0,1-.672,6.827c-.062-.356-.134-.647-.184-.825m2.044-14.649a20.136,20.136,0,0,0-.532-2.888c-.144-.61-.292-1.241-.4-1.863a29.606,29.606,0,0,1-.3-4.259c-.024-1.132-.049-2.3-.179-3.452-.114-1.013-.358-2.126-.617-3.3-.05-.227-.1-.456-.149-.685l3.389,8.044c.494,1.172,1,2.383,1.384,3.612a19.379,19.379,0,0,1,.783,3.963c.469,5.174-1.061,10.716-4.783,17.259a38.1,38.1,0,0,0,.878-7.749c.055-1.221.107-2.374.21-3.5.038-.416.084-.832.13-1.248a20.134,20.134,0,0,0,.178-3.929M39.488,170.677c.157-.586.32-1.191.462-1.787.367-1.53.631-3.121.886-4.661.6-3.625,1.225-7.374,3.224-10.437a23.954,23.954,0,0,1,3.41-3.913c.274-.268.558-.543.85-.819A19.226,19.226,0,0,0,46,152.5a22.954,22.954,0,0,0-2.318,8.331c-.039.369-.072.738-.105,1.108a23.757,23.757,0,0,1-.432,3.189,23.708,23.708,0,0,1-1.766,4.6c-.544,1.168-1.109,2.45-1.656,3.69-.4.9-.805,1.827-1.207,2.712a21.438,21.438,0,0,1,.968-5.448m11.848-23.754c-.341.525-.687,1.046-1.044,1.555l-.177.251a9.233,9.233,0,0,0-2.059,7.06c0,.318,0,.635,0,.951a27.107,27.107,0,0,1-8.582,19.184c-.07.064-.141.127-.211.191.361-.8.725-1.624,1.081-2.431.545-1.237,1.109-2.516,1.651-3.678a24.219,24.219,0,0,0,1.812-4.732,24.271,24.271,0,0,0,.447-3.279c.033-.366.066-.732.1-1.1a22.3,22.3,0,0,1,2.246-8.091,20.922,20.922,0,0,1,4.737-5.883m277.772-35.191a28.19,28.19,0,0,1-.627,3.485c-1.06,3.938-3.8,7.179-6.457,10.313-.949,1.121-1.93,2.28-2.824,3.457a40,40,0,0,0-2.877,4.356c-.717,1.258-1.348,2.512-1.936,3.768,1.516-5.252,3.586-12.381,6.533-17.232A12.034,12.034,0,0,1,323.206,117c.255-.224.534-.439.8-.647a13.24,13.24,0,0,0,1.063-.881,11.322,11.322,0,0,0,2.5-3.8,15.208,15.208,0,0,1,1.713-2.994,9.425,9.425,0,0,0,.557-.838,26.063,26.063,0,0,0-.739,3.886m-12.353,8.376a11.679,11.679,0,0,1,1.78-3.413,14.852,14.852,0,0,1,1.52-1.533c.426-.39.866-.793,1.266-1.232.267-.293.517-.6.76-.9a7.2,7.2,0,0,1,3.338-2.636,15.139,15.139,0,0,0,1.407-.736,10.44,10.44,0,0,0,2.548-2.323,9.458,9.458,0,0,1-.615.946,15.74,15.74,0,0,0-1.788,3.117,10.789,10.789,0,0,1-2.36,3.6,12.561,12.561,0,0,1-1.01.835c-.278.214-.565.435-.837.674a12.692,12.692,0,0,0-2.417,3.031c-2.867,4.718-4.9,11.5-6.407,16.711.152-1.185.284-2.367.412-3.533a54.562,54.562,0,0,1,2.4-12.6" transform="translate(0 0.001)"/>
      </g>
    </g>
  </g>
</svg>
