<svg xmlns="http://www.w3.org/2000/svg" width="234" height="63.147" viewBox="0 0 234 63.147">
  <g id="Groupe_7" data-name="Groupe 7" transform="translate(-79.125 -123.759)">
    <rect id="Rectangle_4" data-name="Rectangle 4" width="6.422" height="6.422" transform="translate(219.068 158.431)" fill="#b1af00"/>
    <path id="Tracé_7" data-name="Tracé 7" d="M95.484,144.075l1.487-1.485-.044-.044-1.742,1.744C95.278,144.213,95.39,144.154,95.484,144.075Z" transform="translate(13.488 16.314)" fill="#2e2e2d"/>
    <g id="Groupe_4" data-name="Groupe 4" transform="translate(79.125 123.759)">
      <path id="Tracé_8" data-name="Tracé 8" d="M148.891,153.471l-17.3-29.526h-3.47v39.824h4.039V132.08L147.81,158.7H149.8l15.644-26.8v31.859h4.039V123.945h-3.47Z" transform="translate(-37.969 -123.603)" fill="#2d2f2b"/>
      <path id="Tracé_9" data-name="Tracé 9" d="M100.116,160.511a17.3,17.3,0,0,1-8.59-2.162,15.789,15.789,0,0,1-6.059-5.917,17.283,17.283,0,0,1,0-16.839,15.776,15.776,0,0,1,6.059-5.917,17.314,17.314,0,0,1,8.59-2.162,15.861,15.861,0,0,1,11.777,4.721l2.673-2.675a16.989,16.989,0,0,0-6.37-4.322A22.165,22.165,0,0,0,100,123.759a21.922,21.922,0,0,0-10.7,2.616,19.665,19.665,0,0,0-4.064,2.957l-.462.464a19.047,19.047,0,0,0-2.953,3.833,20.233,20.233,0,0,0-2.7,10.384,21.665,21.665,0,0,0,.624,5.2,19.382,19.382,0,0,0,2.079,5.181,19.163,19.163,0,0,0,7.452,7.255,20.576,20.576,0,0,0,4.787,1.882,23.43,23.43,0,0,0,5.878.734,21.983,21.983,0,0,0,8.222-1.509,17.547,17.547,0,0,0,4.576-2.688l1.744-1.744-2.594-2.592A15.652,15.652,0,0,1,100.116,160.511Z" transform="translate(-79.125 -123.759)" fill="#2d2f2b"/>
    </g>
    <g id="Groupe_5" data-name="Groupe 5" transform="translate(233.097 124.099)">
      <path id="Tracé_10" data-name="Tracé 10" d="M160.925,123.944h17.411a24.98,24.98,0,0,1,11.321,2.476,18.3,18.3,0,0,1,7.68,7,21.323,21.323,0,0,1,0,20.879,18.3,18.3,0,0,1-7.68,7,24.979,24.979,0,0,1-11.321,2.475H160.925Zm17.069,33.567a16.908,16.908,0,0,0,7.709-1.678,12,12,0,0,0,5.12-4.78,15.347,15.347,0,0,0,0-14.393,12.006,12.006,0,0,0-5.12-4.778,16.908,16.908,0,0,0-7.709-1.678h-9.67v27.308Z" transform="translate(-160.925 -123.944)" fill="#2d2f2b"/>
      <path id="Tracé_11" data-name="Tracé 11" d="M219.378,157.511v6.257H185.412v-4.949l23.44-28.616H185.811v-6.259h32.827v4.949L195.2,157.511Z" transform="translate(-140.359 -123.944)" fill="#2d2f2b"/>
    </g>
    <path id="Tracé_12" data-name="Tracé 12" d="M133.522,126.317a21.431,21.431,0,0,0-9.279-2.537l-3.834,3.836a19.314,19.314,0,0,1,2.445-.158,17.136,17.136,0,0,1,8.532,2.132,15.443,15.443,0,0,1,5.976,5.917,17.6,17.6,0,0,1,0,16.9,15.455,15.455,0,0,1-5.976,5.917,17.155,17.155,0,0,1-8.532,2.132,17.336,17.336,0,0,1-8.565-2.132,15.593,15.593,0,0,1-6.029-5.917,16.546,16.546,0,0,1-2.189-8.449,18.708,18.708,0,0,1,.127-2.127l-4.158,4.156a19.641,19.641,0,0,0,2.581,8.325,19.3,19.3,0,0,0,7.509,7.255,23.065,23.065,0,0,0,21.392.028A19.385,19.385,0,0,0,141,154.339a21.121,21.121,0,0,0,0-20.767A19.4,19.4,0,0,0,133.522,126.317Z" transform="translate(20.021 0.018)" fill="#b1af00"/>
    <g id="Groupe_6" data-name="Groupe 6" transform="translate(79.125 175.141)">
      <path id="Tracé_13" data-name="Tracé 13" d="M86.2,161.6l-1.038-2.745h-4.05L80.071,161.6h-.946l3.687-9.1h.718l3.6,9.1Zm-3.036-8.092-1.768,4.651H84.9Z" transform="translate(-79.125 -150.065)" fill="#2d2f2b"/>
      <path id="Tracé_14" data-name="Tracé 14" d="M91.435,155.17a2.751,2.751,0,0,0-.372-.927,2.354,2.354,0,0,0-2.215-1.108,2.886,2.886,0,0,0-1.4.3,2.751,2.751,0,0,0-1.038,1.095,4.957,4.957,0,0,0-.576,2.578,7.122,7.122,0,0,0,.167,1.623,2.8,2.8,0,0,0,2.984,2.436,2.258,2.258,0,0,0,1.958-.929,2.505,2.505,0,0,0,.488-1l.808.489a3.958,3.958,0,0,1-1.424,1.739,3.53,3.53,0,0,1-1.932.477,3.676,3.676,0,0,1-2.959-1.3,5.931,5.931,0,0,1-.986-3.428,5.852,5.852,0,0,1,1.115-3.66,3.544,3.544,0,0,1,1.176-.891,3.9,3.9,0,0,1,1.564-.282,4.428,4.428,0,0,1,1.485.232,3.385,3.385,0,0,1,2.024,2.125Z" transform="translate(-74.239 -150.171)" fill="#2d2f2b"/>
      <path id="Tracé_15" data-name="Tracé 15" d="M97.121,155.17a2.789,2.789,0,0,0-.372-.927,2.36,2.36,0,0,0-2.217-1.108,2.885,2.885,0,0,0-1.4.3,2.75,2.75,0,0,0-1.038,1.095,4.96,4.96,0,0,0-.574,2.578,7.2,7.2,0,0,0,.166,1.623,2.8,2.8,0,0,0,2.984,2.436,2.263,2.263,0,0,0,1.959-.929,2.558,2.558,0,0,0,.488-1l.806.489a3.958,3.958,0,0,1-1.422,1.739,3.542,3.542,0,0,1-1.934.477,3.678,3.678,0,0,1-2.959-1.3,5.931,5.931,0,0,1-.986-3.428,5.852,5.852,0,0,1,1.115-3.66,3.528,3.528,0,0,1,1.178-.891,3.888,3.888,0,0,1,1.562-.282,4.439,4.439,0,0,1,1.487.232,3.387,3.387,0,0,1,2.022,2.125Z" transform="translate(-69.465 -150.171)" fill="#2d2f2b"/>
      <path id="Tracé_16" data-name="Tracé 16" d="M96.526,162.709v-9.1h5.9v.786H97.383v3.246h4.574v.8H97.383v3.466h5.367v.8Zm3-9.921h-.73l1.268-1.612h1.345Z" transform="translate(-64.51 -151.177)" fill="#2d2f2b"/>
      <path id="Tracé_17" data-name="Tracé 17" d="M101.772,161.6v-9.1h.872v8.3h5v.8Z" transform="translate(-59.461 -150.065)" fill="#2d2f2b"/>
      <path id="Tracé_18" data-name="Tracé 18" d="M106.727,162.709v-9.1h5.9v.786h-5.047v3.246h4.572v.8h-4.572v3.466h5.365v.8Zm3-9.921h-.73l1.27-1.612h1.345Z" transform="translate(-55.157 -151.177)" fill="#2d2f2b"/>
      <path id="Tracé_19" data-name="Tracé 19" d="M117.812,161.6l-2.856-4.033h-2.112V161.6h-.872v-9.1h2.548c.5,0,1.014-.015,1.525.013a2.643,2.643,0,0,1,2.241,1.211,2.8,2.8,0,0,1,.346,1.378,2.256,2.256,0,0,1-1.575,2.269,3.885,3.885,0,0,1-1.1.193l2.935,4.033Zm-.294-7.551a1.931,1.931,0,0,0-1.882-.773h-2.791v3.544h2.125c.23,0,.475,0,.718-.013a2.066,2.066,0,0,0,1.781-.67,1.718,1.718,0,0,0,.32-1.071A1.935,1.935,0,0,0,117.517,154.048Z" transform="translate(-50.6 -150.067)" fill="#2d2f2b"/>
      <path id="Tracé_20" data-name="Tracé 20" d="M124.088,161.6l-1.038-2.745H119l-1.038,2.745h-.946l3.687-9.1h.718l3.6,9.1Zm-3.038-8.092-1.768,4.651h3.511Z" transform="translate(-46.213 -150.065)" fill="#2d2f2b"/>
      <path id="Tracé_21" data-name="Tracé 21" d="M126.292,153.261V161.6h-.857v-8.337H122.59v-.76h6.559v.76Z" transform="translate(-41.381 -150.065)" fill="#2d2f2b"/>
      <path id="Tracé_22" data-name="Tracé 22" d="M127.864,161.6v-9.1h5.9v.786h-5.047v3.246H133.3v.8h-4.574V160.8h5.367v.8Z" transform="translate(-36.803 -150.065)" fill="#2d2f2b"/>
      <path id="Tracé_23" data-name="Tracé 23" d="M139.84,158.517a3.518,3.518,0,0,1-.7,2.294,3.248,3.248,0,0,1-2.626,1.017,3.79,3.79,0,0,1-2.318-.708,2.935,2.935,0,0,1-.653-.747c-.475-.839-.434-1.766-.434-3.66V152.5h.845v5.9a3.365,3.365,0,0,0,.269,1.494,1.762,1.762,0,0,0,.78.787,3.062,3.062,0,0,0,1.5.348,2.672,2.672,0,0,0,2-.76,3.236,3.236,0,0,0,.513-2.166v-5.6h.857v4.136C139.866,157.268,139.866,157.886,139.84,158.517Z" transform="translate(-32.249 -150.065)" fill="#2d2f2b"/>
      <path id="Tracé_24" data-name="Tracé 24" d="M144.78,161.6l-2.856-4.033h-2.112V161.6h-.872v-9.1h2.548c.5,0,1.014-.015,1.525.013a2.642,2.642,0,0,1,2.241,1.211,2.8,2.8,0,0,1,.346,1.378,2.256,2.256,0,0,1-1.575,2.269,3.871,3.871,0,0,1-1.1.193l2.935,4.033Zm-.294-7.551a1.931,1.931,0,0,0-1.882-.773h-2.791v3.544h2.125c.23,0,.473,0,.718-.013a2.066,2.066,0,0,0,1.781-.67,1.718,1.718,0,0,0,.32-1.071A1.935,1.935,0,0,0,144.485,154.048Z" transform="translate(-27.18 -150.067)" fill="#2d2f2b"/>
      <path id="Tracé_25" data-name="Tracé 25" d="M149.88,161.291a3.668,3.668,0,0,1-2.254.644,3.061,3.061,0,0,1-3.371-2.526l.859-.451a2.379,2.379,0,0,0,.206,1.019,2.318,2.318,0,0,0,2.305,1.2,3.627,3.627,0,0,0,1.023-.129,1.9,1.9,0,0,0,1.474-1.8,1.636,1.636,0,0,0-.243-.876c-.307-.489-.821-.708-1.871-.992a10.742,10.742,0,0,1-1.985-.618,2.161,2.161,0,0,1-1.306-2.024,2.1,2.1,0,0,1,.434-1.352,3.313,3.313,0,0,1,2.55-1,3.2,3.2,0,0,1,2.587,1.056,2.983,2.983,0,0,1,.524.94l-.793.425a2.583,2.583,0,0,0-.37-.786,2.313,2.313,0,0,0-1.974-.927,2.569,2.569,0,0,0-1.7.58,1.373,1.373,0,0,0-.421,1.045,1.4,1.4,0,0,0,.267.848,2.821,2.821,0,0,0,1.654.85,7.516,7.516,0,0,1,2.675,1.032,2.239,2.239,0,0,1,.846,1.779A2.512,2.512,0,0,1,149.88,161.291Z" transform="translate(-22.565 -150.171)" fill="#2d2f2b"/>
      <path id="Tracé_26" data-name="Tracé 26" d="M158.506,160.528a3.209,3.209,0,0,1-1.165.824,6.516,6.516,0,0,1-2.421.245h-2.357v-9.1h2.419c.322,0,.629,0,.949.013a3.173,3.173,0,0,1,2.548.992,5.032,5.032,0,0,1,1.218,3.518A5.394,5.394,0,0,1,158.506,160.528Zm-.576-6.379a2.257,2.257,0,0,0-.922-.683,5.669,5.669,0,0,0-1.985-.18h-1.588v7.538h1.356a6.058,6.058,0,0,0,2.408-.283,2.332,2.332,0,0,0,.909-.837,4.63,4.63,0,0,0,.718-2.655A4.769,4.769,0,0,0,157.93,154.15Z" transform="translate(-15.347 -150.065)" fill="#2d2f2b"/>
      <path id="Tracé_27" data-name="Tracé 27" d="M158.394,161.6v-9.1h5.9v.786h-5.047v3.246h4.574v.8h-4.574V160.8h5.367v.8Z" transform="translate(-10.292 -150.065)" fill="#2d2f2b"/>
      <path id="Tracé_28" data-name="Tracé 28" d="M172.319,161.6l-2.857-4.033h-2.112V161.6h-.87v-9.1h2.548c.5,0,1.012-.015,1.525.013a2.644,2.644,0,0,1,2.241,1.211,2.808,2.808,0,0,1,.344,1.378,2.256,2.256,0,0,1-1.575,2.269,3.871,3.871,0,0,1-1.1.193L173.4,161.6Zm-.3-7.551a1.931,1.931,0,0,0-1.882-.773h-2.791v3.544h2.125c.23,0,.475,0,.718-.013a2.064,2.064,0,0,0,1.781-.67,1.717,1.717,0,0,0,.32-1.071A1.935,1.935,0,0,0,172.023,154.048Z" transform="translate(-3.264 -150.067)" fill="#2d2f2b"/>
      <path id="Tracé_29" data-name="Tracé 29" d="M172.017,162.709v-9.1h5.9v.786h-5.047v3.246h4.574v.8h-4.574v3.466h5.367v.8Zm3-9.921h-.73l1.268-1.612H176.9Z" transform="translate(1.537 -151.177)" fill="#2d2f2b"/>
      <path id="Tracé_30" data-name="Tracé 30" d="M183.993,158.517a3.516,3.516,0,0,1-.7,2.294,3.256,3.256,0,0,1-2.627,1.017,3.79,3.79,0,0,1-2.318-.708,2.9,2.9,0,0,1-.651-.747c-.477-.839-.436-1.766-.436-3.66V152.5h.845v5.9a3.365,3.365,0,0,0,.269,1.494,1.764,1.764,0,0,0,.782.787,3.055,3.055,0,0,0,1.5.348,2.672,2.672,0,0,0,2-.76,3.236,3.236,0,0,0,.513-2.166v-5.6h.857v4.136C184.019,157.268,184.019,157.886,183.993,158.517Z" transform="translate(6.094 -150.065)" fill="#2d2f2b"/>
      <path id="Tracé_31" data-name="Tracé 31" d="M188.495,161.291a3.669,3.669,0,0,1-2.254.644,3.061,3.061,0,0,1-3.371-2.526l.859-.451a2.379,2.379,0,0,0,.206,1.019,2.318,2.318,0,0,0,2.305,1.2,3.627,3.627,0,0,0,1.023-.129,1.9,1.9,0,0,0,1.474-1.8,1.636,1.636,0,0,0-.243-.876c-.307-.489-.821-.708-1.871-.992a10.742,10.742,0,0,1-1.985-.618,2.16,2.16,0,0,1-1.3-2.024,2.1,2.1,0,0,1,.432-1.352,3.317,3.317,0,0,1,2.552-1,3.2,3.2,0,0,1,2.585,1.056,2.984,2.984,0,0,1,.524.94l-.793.425a2.583,2.583,0,0,0-.37-.786,2.313,2.313,0,0,0-1.974-.927,2.569,2.569,0,0,0-1.7.58,1.373,1.373,0,0,0-.421,1.045,1.4,1.4,0,0,0,.267.848,2.821,2.821,0,0,0,1.654.85,7.516,7.516,0,0,1,2.675,1.032,2.239,2.239,0,0,1,.846,1.779A2.513,2.513,0,0,1,188.495,161.291Z" transform="translate(11.478 -150.171)" fill="#2d2f2b"/>
      <path id="Tracé_32" data-name="Tracé 32" d="M193.74,161.291a3.664,3.664,0,0,1-2.254.644,3.06,3.06,0,0,1-3.369-2.526l.857-.451a2.379,2.379,0,0,0,.206,1.019,2.321,2.321,0,0,0,2.305,1.2,3.62,3.62,0,0,0,1.023-.129,1.9,1.9,0,0,0,1.474-1.8,1.636,1.636,0,0,0-.243-.876c-.307-.489-.819-.708-1.869-.992a10.7,10.7,0,0,1-1.985-.618,2.158,2.158,0,0,1-1.306-2.024,2.1,2.1,0,0,1,.434-1.352,3.313,3.313,0,0,1,2.55-1,3.2,3.2,0,0,1,2.587,1.056,3.02,3.02,0,0,1,.524.94l-.793.425a2.631,2.631,0,0,0-.372-.786,2.313,2.313,0,0,0-1.974-.927,2.569,2.569,0,0,0-1.7.58,1.373,1.373,0,0,0-.421,1.045,1.4,1.4,0,0,0,.269.848,2.81,2.81,0,0,0,1.654.85,7.529,7.529,0,0,1,2.675,1.032,2.244,2.244,0,0,1,.846,1.779A2.516,2.516,0,0,1,193.74,161.291Z" transform="translate(15.885 -150.171)" fill="#2d2f2b"/>
      <path id="Tracé_33" data-name="Tracé 33" d="M193.586,161.6v-9.1h.857v9.1Z" transform="translate(20.479 -150.065)" fill="#2d2f2b"/>
      <path id="Tracé_34" data-name="Tracé 34" d="M199.464,153.261V161.6h-.857v-8.337h-2.843v-.76h6.557v.76Z" transform="translate(22.308 -150.065)" fill="#2d2f2b"/>
      <path id="Tracé_35" data-name="Tracé 35" d="M201.038,161.6v-9.1h5.9v.786H201.9v3.246h4.574v.8H201.9V160.8h5.367v.8Z" transform="translate(26.738 -150.065)" fill="#2d2f2b"/>
    </g>
  </g>
</svg>
